<svg xmlns="http://www.w3.org/2000/svg" xmlns:xlink="http://www.w3.org/1999/xlink" width="500" zoomAndPan="magnify" viewBox="0 0 375 374.999991" height="500" preserveAspectRatio="xMidYMid meet" version="1.0"><defs><clipPath id="04eaf610da"><path d="M 11.03125 37.5 L 364 37.5 L 364 337.5 L 11.03125 337.5 Z M 11.03125 37.5 " clip-rule="nonzero"/></clipPath></defs><path fill="#ccab5c" d="M 171.574219 100.484375 L 183.335938 112.25 C 184.484375 113.398438 185.992188 113.972656 187.496094 113.972656 C 189 113.972656 190.507812 113.398438 191.65625 112.25 L 203.417969 100.484375 C 205.71875 98.1875 205.71875 94.464844 203.417969 92.164062 L 191.65625 80.402344 C 189.359375 78.105469 185.632812 78.105469 183.335938 80.402344 L 171.574219 92.164062 C 169.273438 94.464844 169.273438 98.1875 171.574219 100.484375 Z M 187.496094 92.878906 L 190.941406 96.324219 L 187.496094 99.769531 L 184.050781 96.324219 Z M 187.496094 92.878906 " fill-opacity="1" fill-rule="nonzero"/><g clip-path="url(#04eaf610da)"><path fill="#ccab5c" d="M 358.082031 325.730469 L 346.316406 325.730469 L 346.316406 294.921875 L 350.621094 300.085938 C 351.785156 301.484375 353.457031 302.203125 355.144531 302.203125 C 356.46875 302.203125 357.804688 301.757812 358.90625 300.839844 C 361.402344 298.761719 361.738281 295.050781 359.660156 292.554688 L 352.992188 284.558594 L 358.082031 284.558594 C 361.328125 284.558594 363.964844 281.921875 363.964844 278.675781 C 363.964844 275.425781 361.328125 272.792969 358.082031 272.792969 L 352.992188 272.792969 L 359.660156 264.792969 C 361.738281 262.296875 361.402344 258.589844 358.90625 256.507812 C 356.410156 254.425781 352.699219 254.765625 350.621094 257.261719 L 346.316406 262.425781 L 346.316406 255.144531 C 346.316406 251.898438 343.683594 249.261719 340.433594 249.261719 C 337.183594 249.261719 334.550781 251.898438 334.550781 255.144531 L 334.550781 262.425781 L 330.246094 257.261719 C 328.167969 254.765625 324.457031 254.429688 321.960938 256.507812 C 319.46875 258.589844 319.128906 262.296875 321.210938 264.792969 L 327.875 272.792969 L 322.789062 272.792969 C 319.539062 272.792969 316.90625 275.425781 316.90625 278.675781 C 316.90625 281.921875 319.539062 284.558594 322.789062 284.558594 L 327.875 284.558594 L 321.210938 292.554688 C 319.128906 295.050781 319.46875 298.761719 321.960938 300.839844 C 323.0625 301.757812 324.398438 302.203125 325.726562 302.203125 C 327.410156 302.203125 329.082031 301.484375 330.246094 300.085938 L 334.550781 294.921875 L 334.550781 325.730469 L 322.789062 325.730469 L 322.789062 308.085938 C 322.789062 304.835938 320.152344 302.203125 316.90625 302.203125 L 311.023438 302.203125 L 311.023438 249.261719 C 314.273438 249.261719 316.90625 246.628906 316.90625 243.382812 L 316.90625 219.851562 C 316.90625 216.605469 314.273438 213.96875 311.023438 213.96875 L 311.023438 172.792969 L 316.90625 172.792969 C 320.152344 172.792969 322.789062 170.160156 322.789062 166.914062 L 322.789062 143.382812 C 322.789062 140.136719 320.152344 137.5 316.90625 137.5 L 285.933594 137.5 C 280.96875 109.570312 264.441406 85.191406 240.136719 70.117188 C 230.480469 50.804688 210.519531 37.503906 187.496094 37.503906 C 164.492188 37.503906 144.542969 50.78125 134.878906 70.074219 C 111.042969 85.226562 94.050781 109.921875 89.0625 137.5 L 58.085938 137.5 C 54.839844 137.5 52.203125 140.136719 52.203125 143.382812 L 52.203125 166.914062 C 52.203125 170.160156 54.839844 172.792969 58.085938 172.792969 L 63.96875 172.792969 L 63.96875 213.96875 C 60.71875 213.96875 58.085938 216.605469 58.085938 219.851562 L 58.085938 243.382812 C 58.085938 246.628906 60.71875 249.261719 63.96875 249.261719 L 63.96875 302.203125 L 58.085938 302.203125 C 54.839844 302.203125 52.203125 304.835938 52.203125 308.085938 L 52.203125 325.730469 L 40.441406 325.730469 L 40.441406 294.921875 L 44.746094 300.085938 C 45.910156 301.484375 47.582031 302.203125 49.265625 302.203125 C 50.59375 302.203125 51.929688 301.757812 53.03125 300.839844 C 55.523438 298.761719 55.863281 295.050781 53.78125 292.554688 L 47.117188 284.558594 L 52.203125 284.558594 C 55.453125 284.558594 58.085938 281.921875 58.085938 278.675781 C 58.085938 275.425781 55.453125 272.792969 52.203125 272.792969 L 47.117188 272.792969 L 53.78125 264.792969 C 55.863281 262.296875 55.523438 258.589844 53.03125 256.507812 C 50.535156 254.425781 46.824219 254.765625 44.746094 257.261719 L 40.441406 262.425781 L 40.441406 255.144531 C 40.441406 251.898438 37.808594 249.261719 34.558594 249.261719 C 31.308594 249.261719 28.675781 251.898438 28.675781 255.144531 L 28.675781 262.425781 L 24.371094 257.261719 C 22.292969 254.765625 18.582031 254.429688 16.085938 256.507812 C 13.589844 258.589844 13.253906 262.296875 15.332031 264.792969 L 22 272.792969 L 16.910156 272.792969 C 13.664062 272.792969 11.027344 275.425781 11.027344 278.675781 C 11.027344 281.921875 13.664062 284.558594 16.910156 284.558594 L 22 284.558594 L 15.332031 292.554688 C 13.253906 295.050781 13.589844 298.761719 16.085938 300.839844 C 17.1875 301.757812 18.523438 302.203125 19.847656 302.203125 C 21.535156 302.203125 23.207031 301.484375 24.371094 300.085938 L 28.675781 294.921875 L 28.675781 325.730469 L 16.910156 325.730469 C 13.664062 325.730469 11.03125 328.367188 11.03125 331.613281 C 11.03125 334.863281 13.664062 337.496094 16.910156 337.496094 L 358.082031 337.496094 C 361.328125 337.496094 363.964844 334.863281 363.964844 331.613281 C 363.964844 328.367188 361.328125 325.730469 358.082031 325.730469 Z M 287.492188 302.203125 L 287.492188 281.617188 C 287.492188 276.75 291.453125 272.792969 296.316406 272.792969 L 299.257812 272.792969 L 299.257812 302.203125 Z M 299.257812 261.027344 L 296.316406 261.027344 C 284.964844 261.027344 275.730469 270.261719 275.730469 281.617188 L 275.730469 302.203125 L 264.222656 302.203125 L 264.222656 249.261719 L 299.257812 249.261719 Z M 158.085938 302.203125 L 158.085938 272.792969 C 158.085938 258.589844 168.207031 246.707031 181.613281 243.972656 L 181.613281 302.203125 Z M 193.378906 243.972656 C 206.785156 246.707031 216.90625 258.589844 216.90625 272.792969 L 216.90625 302.203125 L 193.378906 302.203125 Z M 187.496094 231.617188 C 164.792969 231.617188 146.320312 250.085938 146.320312 272.792969 L 146.320312 302.203125 L 123.050781 302.203125 L 123.050781 149.265625 L 161.875 149.265625 C 165.019531 150.792969 168.320312 152.035156 171.746094 152.988281 C 160.171875 158.785156 152.203125 170.757812 152.203125 184.558594 L 146.320312 184.558594 C 143.070312 184.558594 140.4375 187.191406 140.4375 190.441406 L 140.4375 213.96875 C 140.4375 217.21875 143.070312 219.851562 146.320312 219.851562 L 228.671875 219.851562 C 231.921875 219.851562 234.554688 217.21875 234.554688 213.96875 L 234.554688 190.441406 C 234.554688 187.191406 231.921875 184.558594 228.671875 184.558594 L 222.789062 184.558594 C 222.789062 170.757812 214.820312 158.785156 203.246094 152.988281 C 206.671875 152.035156 209.972656 150.792969 213.117188 149.265625 L 252.457031 149.265625 L 252.457031 302.203125 L 228.671875 302.203125 L 228.671875 272.792969 C 228.671875 250.085938 210.199219 231.617188 187.496094 231.617188 Z M 69.851562 237.5 L 69.851562 225.734375 L 111.285156 225.734375 L 111.285156 237.5 Z M 222.789062 196.324219 L 222.789062 208.085938 L 152.203125 208.085938 L 152.203125 196.324219 Z M 163.96875 184.558594 C 163.96875 171.585938 174.523438 161.03125 187.496094 161.03125 C 200.46875 161.03125 211.023438 171.585938 211.023438 184.558594 Z M 187.496094 72.796875 C 200.46875 72.796875 211.023438 83.351562 211.023438 96.324219 C 211.023438 109.300781 200.46875 119.855469 187.496094 119.855469 C 174.523438 119.855469 163.96875 109.300781 163.96875 96.324219 C 163.96875 83.351562 174.523438 72.796875 187.496094 72.796875 Z M 164.820312 137.542969 L 171.808594 127.925781 C 174.855469 129.445312 178.148438 130.535156 181.613281 131.121094 L 181.613281 143.003906 C 175.589844 142.246094 169.917969 140.359375 164.820312 137.542969 Z M 193.378906 131.121094 C 196.84375 130.535156 200.140625 129.445312 203.183594 127.925781 L 210.171875 137.542969 C 205.074219 140.359375 199.402344 142.246094 193.378906 143.003906 Z M 219.679688 130.613281 L 212.695312 121.003906 C 215.101562 118.546875 217.152344 115.738281 218.761719 112.667969 L 230.070312 116.34375 C 227.523438 121.738281 223.980469 126.574219 219.679688 130.613281 Z M 234.554688 96.324219 C 234.554688 99.34375 234.257812 102.292969 233.710938 105.15625 L 222.410156 101.484375 C 222.65625 99.800781 222.789062 98.078125 222.789062 96.324219 C 222.789062 94.574219 222.65625 92.851562 222.410156 91.167969 L 233.710938 87.496094 C 234.257812 90.355469 234.554688 93.304688 234.554688 96.324219 Z M 203.183594 64.722656 C 200.140625 63.203125 196.84375 62.117188 193.378906 61.53125 L 193.378906 49.648438 C 199.402344 50.402344 205.074219 52.292969 210.171875 55.109375 Z M 181.613281 61.53125 C 178.148438 62.117188 174.855469 63.203125 171.808594 64.722656 L 164.820312 55.109375 C 169.917969 52.292969 175.589844 50.402344 181.613281 49.648438 Z M 152.582031 101.484375 L 141.28125 105.15625 C 140.734375 102.292969 140.4375 99.34375 140.4375 96.324219 C 140.4375 93.304688 140.734375 90.355469 141.28125 87.496094 L 152.582031 91.167969 C 152.335938 92.851562 152.203125 94.574219 152.203125 96.324219 C 152.203125 98.078125 152.335938 99.800781 152.582031 101.484375 Z M 156.230469 112.667969 C 157.84375 115.738281 159.890625 118.546875 162.296875 121.003906 L 155.316406 130.613281 C 151.011719 126.574219 147.46875 121.738281 144.921875 116.34375 Z M 305.140625 225.734375 L 305.140625 237.5 L 264.222656 237.5 L 264.222656 225.734375 Z M 299.257812 213.96875 L 264.222656 213.96875 L 264.222656 172.792969 L 299.257812 172.792969 Z M 311.023438 161.03125 L 264.222656 161.03125 L 264.222656 149.265625 L 311.023438 149.265625 Z M 273.960938 137.5 L 229.449219 137.5 C 235.71875 131.113281 240.539062 123.308594 243.390625 114.617188 C 243.40625 114.578125 243.425781 114.542969 243.441406 114.503906 C 243.453125 114.460938 243.460938 114.417969 243.472656 114.375 C 245.3125 108.683594 246.320312 102.621094 246.320312 96.324219 C 246.320312 93.824219 246.144531 91.359375 245.839844 88.941406 C 260.238281 101.597656 270.132812 118.570312 273.960938 137.5 Z M 230.070312 76.308594 L 218.761719 79.980469 C 217.152344 76.910156 215.101562 74.105469 212.695312 71.648438 L 219.679688 62.039062 C 223.980469 66.078125 227.523438 70.910156 230.070312 76.308594 Z M 155.316406 62.039062 L 162.296875 71.648438 C 159.890625 74.105469 157.84375 76.910156 156.230469 79.980469 L 144.921875 76.308594 C 147.46875 70.910156 151.011719 66.078125 155.316406 62.039062 Z M 129.152344 88.945312 C 128.847656 91.367188 128.675781 93.824219 128.675781 96.324219 C 128.675781 102.621094 129.679688 108.683594 131.519531 114.375 C 131.53125 114.417969 131.539062 114.460938 131.554688 114.503906 C 131.566406 114.542969 131.585938 114.578125 131.601562 114.617188 C 134.453125 123.308594 139.273438 131.113281 145.542969 137.5 L 101.03125 137.5 C 104.855469 118.601562 114.734375 101.625 129.152344 88.945312 Z M 63.96875 149.265625 L 111.285156 149.265625 L 111.285156 161.03125 L 63.96875 161.03125 Z M 75.734375 172.792969 L 111.285156 172.792969 L 111.285156 213.96875 L 75.734375 213.96875 Z M 111.285156 249.261719 L 111.285156 302.203125 L 99.261719 302.203125 L 99.261719 281.617188 C 99.261719 270.261719 90.027344 261.027344 78.675781 261.027344 L 75.734375 261.027344 L 75.734375 249.261719 Z M 75.734375 272.792969 L 78.675781 272.792969 C 83.539062 272.792969 87.5 276.75 87.5 281.617188 L 87.5 302.203125 L 75.734375 302.203125 Z M 63.96875 325.730469 L 63.96875 313.96875 L 311.023438 313.96875 L 311.023438 325.730469 Z M 63.96875 325.730469 " fill-opacity="1" fill-rule="nonzero"/></g></svg>