<svg xmlns="http://www.w3.org/2000/svg" xmlns:xlink="http://www.w3.org/1999/xlink" width="500" zoomAndPan="magnify" viewBox="0 0 375 374.999991" height="500" preserveAspectRatio="xMidYMid meet" version="1.0">
	<defs>
		<clipPath id="14c5198da4">
			<path d="M 49.5 37.5 L 325.5 37.5 L 325.5 337.5 L 49.5 337.5 Z M 49.5 37.5 " clip-rule="nonzero" />
		</clipPath>
	</defs>
	<g clip-path="url(#14c5198da4)">
		<path fill="#ccab5c" d="M 154.789062 262.121094 L 154.789062 282.226562 C 161.261719 283.589844 165.691406 286.316406 165.691406 289.382812 C 165.691406 293.8125 156.492188 297.21875 145.589844 297.21875 C 134.34375 297.21875 125.484375 293.8125 125.484375 289.382812 C 125.484375 286.316406 129.914062 283.589844 136.390625 282.226562 L 136.390625 254.625 C 134.683594 253.945312 132.980469 252.921875 130.9375 252.242188 C 70.285156 222.253906 49.5 264.167969 49.5 281.886719 C 49.5 316.640625 122.078125 337.425781 189.203125 337.425781 C 256.328125 337.425781 325.160156 317.320312 325.160156 299.945312 C 325.5 283.589844 237.589844 293.46875 154.789062 262.121094 M 264.167969 65.855469 C 264.167969 65.855469 253.261719 63.46875 231.457031 71.648438 C 220.550781 75.738281 200.449219 90.390625 183.070312 98.226562 C 169.78125 104.359375 155.8125 105.382812 149.335938 105.382812 L 149.335938 287.679688 C 149.335938 289.722656 147.632812 291.425781 145.589844 291.425781 C 143.542969 291.425781 141.839844 289.722656 141.839844 287.679688 L 141.839844 44.730469 C 141.5 44.046875 141.160156 43.027344 141.160156 42.34375 C 141.160156 39.960938 143.203125 37.574219 145.929688 37.574219 C 148.65625 37.574219 150.019531 39.617188 150.019531 42.34375 C 150.019531 43.367188 149.679688 44.046875 149.335938 44.730469 L 149.335938 48.820312 C 155.128906 52.566406 167.394531 58.699219 189.203125 61.425781 C 201.8125 63.128906 216.464844 61.085938 229.410156 61.085938 C 248.492188 60.746094 264.167969 65.855469 264.167969 65.855469 " fill-opacity="1" fill-rule="nonzero" />
	</g>
</svg>
