<svg xmlns="http://www.w3.org/2000/svg" xmlns:xlink="http://www.w3.org/1999/xlink" width="500" zoomAndPan="magnify" viewBox="0 0 375 374.999991" height="500" preserveAspectRatio="xMidYMid meet" version="1.0">
	<defs>
		<clipPath id="6ddc65e3c9">
			<path d="M 37.5 37.5 L 337.5 37.5 L 337.5 337.5 L 37.5 337.5 Z M 37.5 37.5 " clip-rule="nonzero" />
		</clipPath>
	</defs>
	<g clip-path="url(#6ddc65e3c9)">
		<path fill="#ccab5c" d="M 328.160156 328.15625 L 46.84375 328.15625 L 46.84375 300.140625 L 152.253906 300.140625 C 152.691406 300.273438 153.15625 300.347656 153.636719 300.347656 C 154.117188 300.347656 154.582031 300.273438 155.015625 300.140625 L 221.457031 300.140625 C 221.894531 300.273438 222.359375 300.347656 222.839844 300.347656 C 223.320312 300.347656 223.785156 300.273438 224.21875 300.140625 L 328.160156 300.140625 Z M 69.109375 290.277344 L 69.109375 190.953125 C 69.109375 182.75 81.453125 173.882812 102.128906 167.226562 C 102.910156 166.976562 103.699219 166.730469 104.496094 166.484375 L 104.496094 290.277344 C 104.496094 290.453125 104.507812 290.625 104.527344 290.796875 L 69.082031 290.796875 C 69.101562 290.625 69.109375 290.453125 69.109375 290.277344 Z M 76.683594 68.160156 C 82.5625 64.402344 91.316406 60.769531 102.007812 57.652344 C 102.828125 57.410156 103.660156 57.175781 104.496094 56.941406 L 104.496094 156.746094 C 102.71875 157.257812 100.972656 157.785156 99.269531 158.332031 C 87.394531 162.15625 77.996094 166.660156 71.339844 171.726562 C 70.554688 172.320312 69.816406 172.925781 69.109375 173.53125 L 69.109375 76.617188 C 69.109375 74.355469 71.941406 71.195312 76.683594 68.160156 Z M 261.574219 54.339844 L 261.574219 119.066406 C 243.929688 113.972656 225.507812 110.761719 206.722656 109.511719 C 190.09375 108.40625 173.152344 108.828125 156.355469 110.761719 C 136.144531 113.089844 121.175781 117.011719 113.839844 119.214844 L 113.839844 54.578125 C 135.625 49.5625 161.542969 46.839844 188.238281 46.839844 C 214.5 46.839844 240.011719 49.476562 261.574219 54.339844 Z M 299.789062 68.160156 C 304.535156 71.195312 307.363281 74.355469 307.363281 76.617188 L 307.363281 173.53125 C 306.664062 172.925781 305.921875 172.320312 305.136719 171.726562 C 298.480469 166.660156 289.082031 162.15625 277.207031 158.332031 C 275.167969 157.675781 273.070312 157.046875 270.917969 156.441406 L 270.917969 56.65625 C 272.113281 56.980469 273.304688 57.308594 274.46875 57.652344 C 285.160156 60.769531 293.914062 64.402344 299.789062 68.160156 Z M 270.917969 290.277344 L 270.917969 166.171875 C 272.078125 166.515625 273.222656 166.867188 274.347656 167.226562 C 295.023438 173.882812 307.363281 182.75 307.363281 190.953125 L 307.363281 290.277344 C 307.363281 290.453125 307.375 290.625 307.394531 290.796875 L 270.886719 290.796875 C 270.90625 290.625 270.917969 290.453125 270.917969 290.277344 Z M 261.574219 154.050781 C 241.351562 149.351562 217.382812 146.710938 192.171875 146.460938 L 192.171875 118.3125 C 212.644531 118.605469 236.535156 121.277344 261.574219 128.808594 Z M 113.839844 129.007812 C 119.066406 127.324219 135.132812 122.585938 157.722656 120.007812 C 165.039062 119.175781 173.496094 118.527344 182.828125 118.335938 L 182.828125 146.480469 C 157.71875 146.820312 133.890625 149.539062 113.839844 154.296875 Z M 222.839844 178.824219 L 153.636719 178.824219 C 151.058594 178.824219 148.964844 180.914062 148.964844 183.496094 L 148.964844 290.796875 L 113.808594 290.796875 C 113.828125 290.625 113.839844 290.453125 113.839844 290.277344 L 113.839844 163.910156 C 135.011719 158.640625 160.917969 155.78125 188.238281 155.78125 C 215.105469 155.78125 240.601562 158.546875 261.574219 163.648438 L 261.574219 290.277344 C 261.574219 290.453125 261.585938 290.625 261.605469 290.796875 L 227.511719 290.796875 L 227.511719 183.496094 C 227.511719 180.914062 225.421875 178.824219 222.839844 178.824219 Z M 158.308594 290.796875 L 158.308594 188.164062 L 218.167969 188.164062 L 218.167969 290.796875 Z M 332.828125 290.796875 L 316.679688 290.796875 C 316.699219 290.625 316.707031 290.453125 316.707031 290.277344 L 316.707031 76.617188 C 316.707031 70.828125 312.710938 65.335938 304.824219 60.292969 C 298.117188 56 288.78125 52.09375 277.085938 48.679688 C 252.367188 41.46875 220.8125 37.5 188.238281 37.5 C 155.664062 37.5 124.109375 41.46875 99.390625 48.679688 C 87.695312 52.09375 78.359375 56 71.652344 60.292969 C 63.765625 65.335938 59.769531 70.828125 59.769531 76.617188 L 59.769531 290.277344 C 59.769531 290.453125 59.777344 290.625 59.796875 290.796875 L 42.171875 290.796875 C 39.589844 290.796875 37.5 292.886719 37.5 295.46875 L 37.5 332.828125 C 37.5 335.410156 39.589844 337.5 42.171875 337.5 L 332.828125 337.5 C 335.410156 337.5 337.5 335.410156 337.5 332.828125 L 337.5 295.46875 C 337.5 292.886719 335.410156 290.796875 332.828125 290.796875 " fill-opacity="1" fill-rule="nonzero" />
	</g>
	<path fill="#ccab5c" d="M 142.945312 89.042969 C 141.257812 83.242188 139.574219 77.460938 137.894531 71.699219 C 137.894531 78.386719 137.894531 85.078125 137.894531 91.769531 C 137.894531 92.878906 137.628906 93.773438 137.089844 94.464844 C 136.554688 95.152344 135.847656 95.609375 134.960938 95.839844 C 134.105469 96.0625 133.410156 95.972656 132.867188 95.570312 C 132.328125 95.167969 132.058594 94.40625 132.058594 93.28125 C 132.058594 85.613281 132.058594 77.945312 132.058594 70.277344 C 132.058594 69.007812 132.414062 68.054688 133.125 67.417969 C 133.835938 66.785156 134.796875 66.308594 136.011719 66 C 136.667969 65.835938 137.324219 65.671875 137.980469 65.507812 C 139.167969 65.21875 140.03125 65.117188 140.566406 65.191406 C 141.105469 65.265625 141.503906 65.53125 141.761719 65.988281 C 142.019531 66.445312 142.3125 67.21875 142.644531 68.308594 C 144.171875 73.277344 145.703125 78.261719 147.234375 83.265625 C 148.769531 77.648438 150.304688 72.046875 151.839844 66.464844 C 152.171875 65.242188 152.46875 64.351562 152.730469 63.789062 C 152.988281 63.230469 153.390625 62.800781 153.933594 62.511719 C 154.476562 62.222656 155.347656 61.976562 156.546875 61.789062 C 157.214844 61.683594 157.878906 61.582031 158.546875 61.484375 C 159.777344 61.300781 160.757812 61.386719 161.484375 61.734375 C 162.207031 62.078125 162.570312 62.890625 162.570312 64.160156 C 162.570312 71.828125 162.570312 79.492188 162.570312 87.164062 C 162.574219 88.273438 162.300781 89.140625 161.753906 89.769531 C 161.210938 90.394531 160.480469 90.773438 159.570312 90.902344 C 158.714844 91.027344 158.011719 90.855469 157.460938 90.382812 C 156.910156 89.910156 156.632812 89.121094 156.632812 88.011719 C 156.632812 81.320312 156.632812 74.632812 156.632812 67.941406 C 154.933594 74.382812 153.234375 80.84375 151.539062 87.324219 C 151.207031 88.585938 150.933594 89.515625 150.726562 90.117188 C 150.515625 90.71875 150.132812 91.300781 149.570312 91.871094 C 149.007812 92.441406 148.226562 92.820312 147.234375 93.019531 C 146.484375 93.167969 145.855469 93.152344 145.335938 92.964844 C 144.820312 92.773438 144.414062 92.480469 144.128906 92.078125 C 143.839844 91.679688 143.613281 91.214844 143.449219 90.6875 C 143.285156 90.164062 143.117188 89.613281 142.945312 89.042969 " fill-opacity="1" fill-rule="nonzero" />
	<path fill="#ccab5c" d="M 176.875 77.246094 C 180.070312 77.039062 183.265625 76.898438 186.464844 76.828125 C 184.851562 72.863281 183.238281 68.917969 181.625 64.988281 C 180.042969 69.058594 178.457031 73.144531 176.875 77.246094 Z M 189.753906 84.851562 C 189.242188 83.636719 188.730469 82.425781 188.21875 81.21875 C 183.867188 81.28125 179.511719 81.46875 175.167969 81.785156 C 174.65625 83.066406 174.148438 84.347656 173.636719 85.628906 C 173.039062 87.132812 172.53125 88.15625 172.109375 88.703125 C 171.683594 89.246094 170.992188 89.5625 170.03125 89.65625 C 169.214844 89.734375 168.496094 89.535156 167.871094 89.058594 C 167.242188 88.582031 166.933594 88.003906 166.933594 87.316406 C 166.933594 86.917969 167.003906 86.5 167.148438 86.0625 C 167.296875 85.625 167.535156 85.011719 167.871094 84.222656 C 170.597656 77.640625 173.332031 71.109375 176.066406 64.628906 C 176.296875 64.070312 176.578125 63.398438 176.90625 62.617188 C 177.234375 61.835938 177.585938 61.183594 177.957031 60.660156 C 178.332031 60.132812 178.820312 59.699219 179.425781 59.355469 C 180.03125 59.011719 180.777344 58.820312 181.667969 58.78125 C 182.574219 58.742188 183.328125 58.871094 183.9375 59.160156 C 184.542969 59.449219 185.03125 59.835938 185.40625 60.316406 C 185.777344 60.792969 186.089844 61.3125 186.347656 61.867188 C 186.601562 62.425781 186.925781 63.167969 187.320312 64.097656 C 190.121094 70.300781 192.917969 76.554688 195.714844 82.859375 C 196.371094 84.300781 196.703125 85.347656 196.703125 85.996094 C 196.703125 86.667969 196.390625 87.277344 195.769531 87.828125 C 195.148438 88.378906 194.402344 88.648438 193.523438 88.640625 C 193.011719 88.636719 192.574219 88.550781 192.207031 88.386719 C 191.84375 88.21875 191.535156 87.992188 191.289062 87.707031 C 191.039062 87.425781 190.773438 86.988281 190.488281 86.402344 C 190.203125 85.816406 189.957031 85.296875 189.753906 84.851562 " fill-opacity="1" fill-rule="nonzero" />
	<path fill="#ccab5c" d="M 207.847656 62.734375 C 207.847656 69.785156 207.847656 76.839844 207.847656 83.894531 C 212.234375 84.210938 216.617188 84.660156 220.984375 85.238281 C 222.03125 85.378906 222.832031 85.722656 223.390625 86.265625 C 223.949219 86.808594 224.230469 87.429688 224.230469 88.128906 C 224.230469 88.84375 223.953125 89.382812 223.402344 89.746094 C 222.851562 90.109375 222.046875 90.21875 220.984375 90.078125 C 215.78125 89.390625 210.5625 88.882812 205.328125 88.5625 C 203.914062 88.476562 202.898438 88.140625 202.277344 87.542969 C 201.65625 86.945312 201.347656 86.011719 201.347656 84.742188 C 201.347656 77.28125 201.347656 69.816406 201.347656 62.351562 C 201.347656 61.164062 201.640625 60.28125 202.230469 59.71875 C 202.824219 59.148438 203.601562 58.890625 204.5625 58.949219 C 205.542969 59.003906 206.332031 59.351562 206.9375 59.980469 C 207.542969 60.613281 207.847656 61.53125 207.847656 62.734375 " fill-opacity="1" fill-rule="nonzero" />
	<path fill="#ccab5c" d="M 234.761719 66.335938 C 234.761719 73.390625 234.761719 80.445312 234.761719 87.496094 C 239.101562 88.347656 243.414062 89.324219 247.710938 90.433594 C 248.734375 90.695312 249.523438 91.136719 250.070312 91.75 C 250.617188 92.359375 250.890625 93.019531 250.890625 93.71875 C 250.890625 94.429688 250.621094 94.9375 250.082031 95.234375 C 249.539062 95.53125 248.75 95.539062 247.710938 95.269531 C 242.597656 93.953125 237.449219 92.816406 232.277344 91.863281 C 230.875 91.605469 229.867188 91.148438 229.253906 90.472656 C 228.640625 89.800781 228.332031 88.832031 228.332031 87.5625 C 228.332031 80.101562 228.332031 72.636719 228.332031 65.175781 C 228.332031 63.984375 228.625 63.140625 229.210938 62.644531 C 229.796875 62.148438 230.566406 61.984375 231.519531 62.15625 C 232.484375 62.332031 233.269531 62.773438 233.867188 63.476562 C 234.464844 64.179688 234.761719 65.136719 234.761719 66.335938 " fill-opacity="1" fill-rule="nonzero" />
</svg>
