<svg xmlns="http://www.w3.org/2000/svg" xmlns:xlink="http://www.w3.org/1999/xlink" width="500" zoomAndPan="magnify" viewBox="0 0 375 374.999991" height="500" preserveAspectRatio="xMidYMid meet" version="1.0"><defs><clipPath id="96c7a14e62"><path d="M 40.6875 127 L 334.6875 127 L 334.6875 337.5 L 40.6875 337.5 Z M 40.6875 127 " clip-rule="nonzero"/></clipPath><clipPath id="6dda42a43e"><path d="M 142 37.5 L 195 37.5 L 195 160 L 142 160 Z M 142 37.5 " clip-rule="nonzero"/></clipPath><clipPath id="86f5358eb4"><path d="M 226 37.5 L 280 37.5 L 280 160 L 226 160 Z M 226 37.5 " clip-rule="nonzero"/></clipPath></defs><g clip-path="url(#96c7a14e62)"><path fill="#ccab5c" d="M 328.972656 337.433594 L 46.09375 337.433594 C 45.699219 337.433594 45.3125 337.386719 44.929688 337.300781 C 44.546875 337.210938 44.179688 337.078125 43.828125 336.90625 C 43.476562 336.734375 43.148438 336.523438 42.84375 336.273438 C 42.539062 336.027344 42.265625 335.746094 42.027344 335.4375 C 41.785156 335.125 41.582031 334.792969 41.417969 334.433594 C 41.253906 334.078125 41.132812 333.707031 41.054688 333.324219 C 40.976562 332.9375 40.941406 332.550781 40.949219 332.15625 C 40.960938 331.765625 41.015625 331.378906 41.113281 331 L 93.699219 131.324219 C 93.839844 130.769531 94.070312 130.257812 94.382812 129.78125 C 94.695312 129.304688 95.078125 128.890625 95.527344 128.542969 C 95.980469 128.191406 96.476562 127.925781 97.015625 127.738281 C 97.554688 127.554688 98.109375 127.460938 98.679688 127.460938 L 147.332031 127.460938 C 147.671875 127.460938 148.007812 127.496094 148.335938 127.5625 C 148.667969 127.628906 148.992188 127.726562 149.304688 127.855469 C 149.617188 127.984375 149.914062 128.140625 150.191406 128.328125 C 150.472656 128.519531 150.734375 128.730469 150.972656 128.96875 C 151.210938 129.210938 151.425781 129.46875 151.613281 129.75 C 151.800781 130.03125 151.960938 130.328125 152.089844 130.640625 C 152.21875 130.953125 152.316406 131.273438 152.382812 131.605469 C 152.449219 131.9375 152.480469 132.273438 152.480469 132.609375 C 152.480469 132.949219 152.449219 133.28125 152.382812 133.613281 C 152.316406 133.945312 152.21875 134.269531 152.089844 134.582031 C 151.960938 134.890625 151.800781 135.1875 151.613281 135.46875 C 151.425781 135.75 151.210938 136.011719 150.972656 136.25 C 150.734375 136.488281 150.472656 136.703125 150.191406 136.890625 C 149.914062 137.078125 149.617188 137.238281 149.304688 137.367188 C 148.992188 137.496094 148.667969 137.59375 148.335938 137.660156 C 148.007812 137.726562 147.671875 137.757812 147.332031 137.757812 L 102.644531 137.757812 L 52.773438 327.136719 L 322.292969 327.136719 L 272.421875 137.785156 L 231.84375 137.785156 C 231.503906 137.785156 231.171875 137.75 230.839844 137.683594 C 230.507812 137.617188 230.183594 137.519531 229.871094 137.390625 C 229.5625 137.261719 229.265625 137.105469 228.984375 136.917969 C 228.703125 136.726562 228.441406 136.515625 228.203125 136.277344 C 227.964844 136.035156 227.75 135.777344 227.5625 135.496094 C 227.375 135.214844 227.214844 134.917969 227.085938 134.605469 C 226.957031 134.292969 226.859375 133.972656 226.792969 133.640625 C 226.726562 133.308594 226.695312 132.972656 226.695312 132.636719 C 226.695312 132.296875 226.726562 131.964844 226.792969 131.632812 C 226.859375 131.300781 226.957031 130.976562 227.085938 130.664062 C 227.214844 130.355469 227.375 130.058594 227.5625 129.777344 C 227.75 129.496094 227.964844 129.234375 228.203125 128.996094 C 228.441406 128.757812 228.703125 128.542969 228.984375 128.355469 C 229.265625 128.167969 229.5625 128.007812 229.871094 127.878906 C 230.183594 127.75 230.507812 127.652344 230.839844 127.585938 C 231.171875 127.519531 231.503906 127.488281 231.84375 127.488281 L 276.386719 127.488281 C 276.957031 127.488281 277.511719 127.582031 278.050781 127.765625 C 278.589844 127.949219 279.085938 128.21875 279.535156 128.566406 C 279.984375 128.917969 280.367188 129.328125 280.683594 129.804688 C 280.996094 130.28125 281.222656 130.796875 281.367188 131.347656 L 333.953125 331 C 334.050781 331.378906 334.105469 331.765625 334.113281 332.15625 C 334.125 332.550781 334.089844 332.9375 334.011719 333.324219 C 333.929688 333.707031 333.808594 334.078125 333.644531 334.433594 C 333.480469 334.792969 333.277344 335.125 333.039062 335.4375 C 332.796875 335.746094 332.527344 336.027344 332.222656 336.273438 C 331.917969 336.523438 331.589844 336.734375 331.238281 336.90625 C 330.882812 337.078125 330.515625 337.210938 330.132812 337.300781 C 329.75 337.386719 329.363281 337.433594 328.972656 337.433594 Z M 328.972656 337.433594 " fill-opacity="1" fill-rule="nonzero"/></g><path fill="#ccab5c" d="M 300.425781 315.433594 L 74.636719 315.433594 C 74.246094 315.433594 73.859375 315.386719 73.476562 315.296875 C 73.09375 315.207031 72.726562 315.078125 72.375 314.902344 C 72.023438 314.730469 71.695312 314.519531 71.390625 314.269531 C 71.085938 314.023438 70.816406 313.742188 70.574219 313.433594 C 70.335938 313.121094 70.132812 312.789062 69.96875 312.433594 C 69.804688 312.074219 69.683594 311.707031 69.605469 311.320312 C 69.527344 310.9375 69.492188 310.546875 69.503906 310.15625 C 69.511719 309.761719 69.566406 309.378906 69.664062 308.996094 L 110.660156 153.351562 C 110.804688 152.796875 111.03125 152.285156 111.34375 151.808594 C 111.65625 151.332031 112.039062 150.917969 112.488281 150.570312 C 112.9375 150.222656 113.433594 149.953125 113.972656 149.769531 C 114.511719 149.582031 115.066406 149.488281 115.636719 149.488281 L 259.429688 149.488281 C 260 149.488281 260.554688 149.582031 261.09375 149.769531 C 261.632812 149.953125 262.125 150.222656 262.574219 150.570312 C 263.027344 150.917969 263.40625 151.332031 263.71875 151.808594 C 264.035156 152.285156 264.261719 152.796875 264.402344 153.351562 L 305.402344 308.996094 C 305.5 309.378906 305.550781 309.761719 305.5625 310.15625 C 305.570312 310.546875 305.539062 310.9375 305.457031 311.320312 C 305.378906 311.707031 305.257812 312.074219 305.09375 312.433594 C 304.929688 312.789062 304.730469 313.121094 304.488281 313.433594 C 304.25 313.742188 303.976562 314.023438 303.671875 314.269531 C 303.371094 314.519531 303.042969 314.730469 302.6875 314.902344 C 302.335938 315.078125 301.96875 315.207031 301.589844 315.296875 C 301.207031 315.386719 300.820312 315.433594 300.425781 315.433594 Z M 81.316406 305.136719 L 293.746094 305.136719 L 255.460938 159.785156 L 119.605469 159.785156 Z M 81.316406 305.136719 " fill-opacity="1" fill-rule="nonzero"/><g clip-path="url(#6dda42a43e)"><path fill="#ccab5c" d="M 147.332031 159.785156 C 146.996094 159.785156 146.660156 159.75 146.328125 159.6875 C 145.996094 159.621094 145.675781 159.523438 145.363281 159.394531 C 145.050781 159.261719 144.753906 159.105469 144.472656 158.917969 C 144.191406 158.730469 143.933594 158.515625 143.691406 158.277344 C 143.453125 158.039062 143.242188 157.777344 143.054688 157.496094 C 142.863281 157.214844 142.707031 156.917969 142.578125 156.605469 C 142.449219 156.292969 142.351562 155.972656 142.285156 155.640625 C 142.21875 155.308594 142.183594 154.976562 142.183594 154.636719 L 142.183594 68.890625 C 142.183594 51.621094 153.933594 37.566406 168.375 37.566406 C 182.816406 37.566406 194.566406 51.621094 194.566406 68.890625 C 194.566406 69.230469 194.53125 69.566406 194.464844 69.894531 C 194.402344 70.226562 194.304688 70.550781 194.171875 70.863281 C 194.042969 71.175781 193.886719 71.46875 193.699219 71.75 C 193.511719 72.03125 193.296875 72.292969 193.058594 72.53125 C 192.820312 72.769531 192.558594 72.984375 192.277344 73.171875 C 191.996094 73.359375 191.699219 73.519531 191.386719 73.648438 C 191.074219 73.777344 190.753906 73.875 190.421875 73.941406 C 190.089844 74.007812 189.753906 74.039062 189.417969 74.039062 C 189.078125 74.039062 188.746094 74.007812 188.414062 73.941406 C 188.082031 73.875 187.761719 73.777344 187.449219 73.648438 C 187.136719 73.519531 186.839844 73.359375 186.558594 73.171875 C 186.277344 72.984375 186.015625 72.769531 185.777344 72.53125 C 185.539062 72.292969 185.324219 72.03125 185.136719 71.75 C 184.949219 71.46875 184.789062 71.175781 184.660156 70.863281 C 184.53125 70.550781 184.433594 70.226562 184.367188 69.894531 C 184.300781 69.566406 184.269531 69.230469 184.269531 68.890625 C 184.269531 57.308594 177.140625 47.863281 168.375 47.863281 C 159.609375 47.863281 152.480469 57.296875 152.480469 68.890625 L 152.480469 154.636719 C 152.480469 154.976562 152.449219 155.308594 152.382812 155.640625 C 152.316406 155.972656 152.21875 156.292969 152.089844 156.605469 C 151.960938 156.917969 151.800781 157.214844 151.613281 157.496094 C 151.425781 157.777344 151.210938 158.039062 150.972656 158.277344 C 150.734375 158.515625 150.472656 158.730469 150.191406 158.917969 C 149.914062 159.105469 149.617188 159.261719 149.304688 159.394531 C 148.992188 159.523438 148.667969 159.621094 148.335938 159.6875 C 148.007812 159.75 147.671875 159.785156 147.332031 159.785156 Z M 147.332031 159.785156 " fill-opacity="1" fill-rule="nonzero"/></g><g clip-path="url(#86f5358eb4)"><path fill="#ccab5c" d="M 231.84375 159.785156 C 231.503906 159.785156 231.171875 159.75 230.839844 159.6875 C 230.507812 159.621094 230.183594 159.523438 229.871094 159.394531 C 229.5625 159.261719 229.265625 159.105469 228.984375 158.917969 C 228.703125 158.730469 228.441406 158.515625 228.203125 158.277344 C 227.964844 158.039062 227.75 157.777344 227.5625 157.496094 C 227.375 157.214844 227.214844 156.917969 227.085938 156.605469 C 226.957031 156.292969 226.859375 155.972656 226.792969 155.640625 C 226.726562 155.308594 226.695312 154.976562 226.695312 154.636719 L 226.695312 68.890625 C 226.695312 51.621094 238.445312 37.566406 252.886719 37.566406 C 267.324219 37.566406 279.074219 51.621094 279.074219 68.890625 C 279.074219 69.230469 279.042969 69.566406 278.976562 69.894531 C 278.910156 70.226562 278.8125 70.550781 278.683594 70.863281 C 278.554688 71.175781 278.394531 71.46875 278.207031 71.75 C 278.019531 72.03125 277.804688 72.292969 277.566406 72.53125 C 277.328125 72.769531 277.066406 72.984375 276.789062 73.171875 C 276.507812 73.359375 276.210938 73.519531 275.898438 73.648438 C 275.585938 73.777344 275.261719 73.875 274.929688 73.941406 C 274.601562 74.007812 274.265625 74.039062 273.925781 74.039062 C 273.589844 74.039062 273.253906 74.007812 272.921875 73.941406 C 272.589844 73.875 272.269531 73.777344 271.957031 73.648438 C 271.644531 73.519531 271.347656 73.359375 271.066406 73.171875 C 270.785156 72.984375 270.527344 72.769531 270.289062 72.53125 C 270.046875 72.292969 269.835938 72.03125 269.648438 71.75 C 269.460938 71.46875 269.300781 71.175781 269.171875 70.863281 C 269.042969 70.550781 268.945312 70.226562 268.878906 69.894531 C 268.8125 69.566406 268.78125 69.230469 268.78125 68.890625 C 268.78125 57.308594 261.648438 47.863281 252.886719 47.863281 C 244.121094 47.863281 236.992188 57.296875 236.992188 68.890625 L 236.992188 154.636719 C 236.992188 154.976562 236.957031 155.308594 236.890625 155.640625 C 236.824219 155.972656 236.726562 156.292969 236.597656 156.605469 C 236.46875 156.917969 236.3125 157.214844 236.125 157.496094 C 235.933594 157.777344 235.722656 158.039062 235.484375 158.277344 C 235.242188 158.515625 234.984375 158.730469 234.703125 158.917969 C 234.421875 159.105469 234.125 159.261719 233.8125 159.394531 C 233.5 159.523438 233.179688 159.621094 232.847656 159.6875 C 232.515625 159.75 232.179688 159.785156 231.84375 159.785156 Z M 231.84375 159.785156 " fill-opacity="1" fill-rule="nonzero"/></g><path fill="#ccab5c" d="M 231.84375 90.03125 L 147.332031 90.03125 C 146.996094 90.03125 146.660156 89.996094 146.328125 89.929688 C 145.996094 89.867188 145.675781 89.769531 145.363281 89.636719 C 145.050781 89.507812 144.753906 89.351562 144.472656 89.164062 C 144.191406 88.976562 143.933594 88.761719 143.691406 88.523438 C 143.453125 88.285156 143.242188 88.023438 143.054688 87.742188 C 142.863281 87.460938 142.707031 87.164062 142.578125 86.851562 C 142.449219 86.539062 142.351562 86.21875 142.285156 85.886719 C 142.21875 85.554688 142.183594 85.21875 142.183594 84.882812 C 142.183594 84.542969 142.21875 84.210938 142.285156 83.878906 C 142.351562 83.546875 142.449219 83.226562 142.578125 82.914062 C 142.707031 82.601562 142.863281 82.304688 143.054688 82.023438 C 143.242188 81.742188 143.453125 81.480469 143.691406 81.242188 C 143.933594 81.003906 144.191406 80.789062 144.472656 80.601562 C 144.753906 80.414062 145.050781 80.253906 145.363281 80.125 C 145.675781 79.996094 145.996094 79.898438 146.328125 79.832031 C 146.660156 79.765625 146.996094 79.734375 147.332031 79.734375 L 231.84375 79.734375 C 232.179688 79.734375 232.515625 79.765625 232.847656 79.832031 C 233.179688 79.898438 233.5 79.996094 233.8125 80.125 C 234.125 80.253906 234.421875 80.414062 234.703125 80.601562 C 234.984375 80.789062 235.242188 81.003906 235.484375 81.242188 C 235.722656 81.480469 235.933594 81.742188 236.125 82.023438 C 236.3125 82.304688 236.46875 82.601562 236.597656 82.914062 C 236.726562 83.226562 236.824219 83.546875 236.890625 83.878906 C 236.957031 84.210938 236.992188 84.542969 236.992188 84.882812 C 236.992188 85.21875 236.957031 85.554688 236.890625 85.886719 C 236.824219 86.21875 236.726562 86.539062 236.597656 86.851562 C 236.46875 87.164062 236.3125 87.460938 236.125 87.742188 C 235.933594 88.023438 235.722656 88.285156 235.484375 88.523438 C 235.242188 88.761719 234.984375 88.976562 234.703125 89.164062 C 234.421875 89.351562 234.125 89.507812 233.8125 89.636719 C 233.5 89.769531 233.179688 89.867188 232.847656 89.929688 C 232.515625 89.996094 232.179688 90.03125 231.84375 90.03125 Z M 231.84375 90.03125 " fill-opacity="1" fill-rule="nonzero"/><path fill="#ccab5c" d="M 231.84375 118.921875 L 147.332031 118.921875 C 146.996094 118.921875 146.660156 118.890625 146.328125 118.824219 C 145.996094 118.757812 145.675781 118.660156 145.363281 118.53125 C 145.050781 118.402344 144.753906 118.242188 144.472656 118.054688 C 144.191406 117.867188 143.933594 117.65625 143.691406 117.414062 C 143.453125 117.175781 143.242188 116.917969 143.054688 116.636719 C 142.863281 116.355469 142.707031 116.058594 142.578125 115.746094 C 142.449219 115.433594 142.351562 115.109375 142.285156 114.78125 C 142.21875 114.449219 142.183594 114.113281 142.183594 113.773438 C 142.183594 113.4375 142.21875 113.101562 142.285156 112.769531 C 142.351562 112.4375 142.449219 112.117188 142.578125 111.804688 C 142.707031 111.492188 142.863281 111.195312 143.054688 110.914062 C 143.242188 110.632812 143.453125 110.375 143.691406 110.136719 C 143.933594 109.894531 144.191406 109.683594 144.472656 109.496094 C 144.753906 109.308594 145.050781 109.148438 145.363281 109.019531 C 145.675781 108.890625 145.996094 108.792969 146.328125 108.726562 C 146.660156 108.660156 146.996094 108.628906 147.332031 108.628906 L 231.84375 108.628906 C 232.179688 108.628906 232.515625 108.660156 232.847656 108.726562 C 233.179688 108.792969 233.5 108.890625 233.8125 109.019531 C 234.125 109.148438 234.421875 109.308594 234.703125 109.496094 C 234.984375 109.683594 235.242188 109.894531 235.484375 110.136719 C 235.722656 110.375 235.933594 110.632812 236.125 110.914062 C 236.3125 111.195312 236.46875 111.492188 236.597656 111.804688 C 236.726562 112.117188 236.824219 112.4375 236.890625 112.769531 C 236.957031 113.101562 236.992188 113.4375 236.992188 113.773438 C 236.992188 114.113281 236.957031 114.449219 236.890625 114.78125 C 236.824219 115.109375 236.726562 115.433594 236.597656 115.746094 C 236.46875 116.058594 236.3125 116.355469 236.125 116.636719 C 235.933594 116.917969 235.722656 117.175781 235.484375 117.414062 C 235.242188 117.65625 234.984375 117.867188 234.703125 118.054688 C 234.421875 118.242188 234.125 118.402344 233.8125 118.53125 C 233.5 118.660156 233.179688 118.757812 232.847656 118.824219 C 232.515625 118.890625 232.179688 118.921875 231.84375 118.921875 Z M 231.84375 118.921875 " fill-opacity="1" fill-rule="nonzero"/><path fill="#ccab5c" d="M 215.878906 191.652344 C 206.835938 191.652344 202.09375 187.441406 198.285156 184.0625 C 195.023438 181.167969 192.660156 179.078125 187.53125 179.078125 C 182.402344 179.078125 180.035156 181.167969 176.773438 184.0625 C 172.964844 187.441406 168.226562 191.652344 159.1875 191.652344 C 150.144531 191.652344 145.410156 187.441406 141.601562 184.0625 C 138.332031 181.167969 135.976562 179.078125 130.839844 179.078125 C 130.503906 179.078125 130.167969 179.042969 129.835938 178.976562 C 129.503906 178.910156 129.183594 178.8125 128.871094 178.683594 C 128.558594 178.554688 128.261719 178.398438 127.980469 178.210938 C 127.699219 178.019531 127.441406 177.808594 127.199219 177.570312 C 126.960938 177.328125 126.746094 177.070312 126.558594 176.789062 C 126.371094 176.507812 126.214844 176.210938 126.085938 175.898438 C 125.957031 175.585938 125.859375 175.265625 125.792969 174.933594 C 125.726562 174.601562 125.691406 174.265625 125.691406 173.929688 C 125.691406 173.589844 125.726562 173.257812 125.792969 172.925781 C 125.859375 172.59375 125.957031 172.269531 126.085938 171.957031 C 126.214844 171.644531 126.371094 171.351562 126.558594 171.070312 C 126.746094 170.789062 126.960938 170.527344 127.199219 170.289062 C 127.441406 170.050781 127.699219 169.835938 127.980469 169.648438 C 128.261719 169.460938 128.558594 169.300781 128.871094 169.171875 C 129.183594 169.042969 129.503906 168.945312 129.835938 168.878906 C 130.167969 168.8125 130.503906 168.78125 130.839844 168.78125 C 139.847656 168.78125 144.625 172.984375 148.433594 176.359375 C 151.695312 179.257812 154.050781 181.355469 159.1875 181.355469 C 164.320312 181.355469 166.675781 179.257812 169.9375 176.359375 C 173.75 172.984375 178.492188 168.78125 187.53125 168.78125 C 196.574219 168.78125 201.308594 172.984375 205.117188 176.359375 C 208.382812 179.257812 210.742188 181.355469 215.878906 181.355469 C 221.011719 181.355469 223.367188 179.257812 226.628906 176.359375 C 230.441406 172.984375 235.183594 168.78125 244.222656 168.78125 C 244.5625 168.78125 244.894531 168.8125 245.226562 168.878906 C 245.558594 168.945312 245.882812 169.042969 246.195312 169.171875 C 246.507812 169.300781 246.800781 169.460938 247.082031 169.648438 C 247.363281 169.835938 247.625 170.050781 247.863281 170.289062 C 248.101562 170.527344 248.316406 170.789062 248.503906 171.070312 C 248.691406 171.351562 248.851562 171.644531 248.980469 171.957031 C 249.109375 172.269531 249.207031 172.59375 249.273438 172.925781 C 249.339844 173.257812 249.371094 173.589844 249.371094 173.929688 C 249.371094 174.265625 249.339844 174.601562 249.273438 174.933594 C 249.207031 175.265625 249.109375 175.585938 248.980469 175.898438 C 248.851562 176.210938 248.691406 176.507812 248.503906 176.789062 C 248.316406 177.070312 248.101562 177.328125 247.863281 177.570312 C 247.625 177.808594 247.363281 178.019531 247.082031 178.210938 C 246.800781 178.398438 246.507812 178.554688 246.195312 178.683594 C 245.882812 178.8125 245.558594 178.910156 245.226562 178.976562 C 244.894531 179.042969 244.5625 179.078125 244.222656 179.078125 C 239.074219 179.078125 236.726562 181.167969 233.464844 184.0625 C 229.65625 187.441406 224.917969 191.652344 215.878906 191.652344 Z M 215.878906 191.652344 " fill-opacity="1" fill-rule="nonzero"/><path fill="#ccab5c" d="M 219.019531 217.222656 C 209.367188 217.222656 204.21875 213.117188 200.0625 209.816406 C 196.308594 206.816406 193.625 204.667969 187.527344 204.667969 C 181.425781 204.667969 178.75 206.835938 174.996094 209.816406 C 170.867188 213.125 165.71875 217.230469 156.039062 217.230469 C 146.363281 217.230469 141.238281 213.125 137.089844 209.824219 C 133.335938 206.824219 130.621094 204.675781 124.554688 204.675781 C 124.214844 204.675781 123.882812 204.640625 123.550781 204.574219 C 123.21875 204.511719 122.894531 204.414062 122.582031 204.28125 C 122.269531 204.152344 121.976562 203.996094 121.695312 203.808594 C 121.414062 203.621094 121.152344 203.40625 120.914062 203.167969 C 120.675781 202.929688 120.460938 202.667969 120.273438 202.386719 C 120.085938 202.105469 119.925781 201.808594 119.796875 201.496094 C 119.667969 201.183594 119.570312 200.863281 119.503906 200.53125 C 119.4375 200.199219 119.40625 199.863281 119.40625 199.527344 C 119.40625 199.1875 119.4375 198.855469 119.503906 198.523438 C 119.570312 198.191406 119.667969 197.867188 119.796875 197.558594 C 119.925781 197.246094 120.085938 196.949219 120.273438 196.667969 C 120.460938 196.386719 120.675781 196.125 120.914062 195.886719 C 121.152344 195.648438 121.414062 195.433594 121.695312 195.246094 C 121.976562 195.058594 122.269531 194.898438 122.582031 194.769531 C 122.894531 194.640625 123.21875 194.542969 123.550781 194.476562 C 123.882812 194.410156 124.214844 194.378906 124.554688 194.378906 C 134.207031 194.378906 139.355469 198.492188 143.511719 201.792969 C 147.261719 204.789062 149.945312 206.941406 156.039062 206.941406 C 162.132812 206.941406 164.824219 204.777344 168.574219 201.792969 C 172.730469 198.4375 177.878906 194.351562 187.53125 194.351562 C 197.183594 194.351562 202.332031 198.464844 206.488281 201.765625 C 210.246094 204.765625 212.957031 206.914062 219.023438 206.914062 C 225.09375 206.914062 227.808594 204.753906 231.558594 201.765625 C 235.691406 198.464844 240.839844 194.351562 250.515625 194.351562 C 250.855469 194.351562 251.191406 194.386719 251.519531 194.453125 C 251.851562 194.519531 252.175781 194.617188 252.488281 194.746094 C 252.800781 194.875 253.097656 195.03125 253.378906 195.222656 C 253.65625 195.410156 253.917969 195.621094 254.15625 195.859375 C 254.394531 196.101562 254.609375 196.359375 254.796875 196.640625 C 254.984375 196.921875 255.144531 197.21875 255.273438 197.53125 C 255.402344 197.84375 255.5 198.164062 255.566406 198.496094 C 255.632812 198.828125 255.664062 199.164062 255.664062 199.5 C 255.664062 199.839844 255.632812 200.175781 255.566406 200.503906 C 255.5 200.835938 255.402344 201.160156 255.273438 201.472656 C 255.144531 201.785156 254.984375 202.078125 254.796875 202.359375 C 254.609375 202.640625 254.394531 202.902344 254.15625 203.140625 C 253.917969 203.378906 253.65625 203.59375 253.378906 203.78125 C 253.097656 203.96875 252.800781 204.128906 252.488281 204.257812 C 252.175781 204.386719 251.851562 204.484375 251.519531 204.550781 C 251.191406 204.617188 250.855469 204.648438 250.515625 204.648438 C 244.441406 204.648438 241.734375 206.816406 237.980469 209.796875 C 233.863281 213.117188 228.714844 217.222656 219.019531 217.222656 Z M 219.019531 217.222656 " fill-opacity="1" fill-rule="nonzero"/><path fill="#ccab5c" d="M 222.160156 242.800781 C 211.832031 242.800781 206.285156 238.773438 201.816406 235.53125 C 197.738281 232.570312 194.515625 230.226562 187.527344 230.226562 C 180.539062 230.226562 177.320312 232.570312 173.242188 235.53125 C 168.78125 238.746094 163.226562 242.800781 152.898438 242.800781 C 142.570312 242.800781 137.019531 238.773438 132.558594 235.53125 C 128.480469 232.570312 125.253906 230.226562 118.273438 230.226562 C 117.933594 230.226562 117.601562 230.195312 117.269531 230.128906 C 116.9375 230.0625 116.617188 229.964844 116.304688 229.835938 C 115.992188 229.707031 115.695312 229.546875 115.414062 229.359375 C 115.132812 229.171875 114.871094 228.960938 114.632812 228.71875 C 114.394531 228.480469 114.179688 228.222656 113.992188 227.941406 C 113.804688 227.660156 113.648438 227.363281 113.515625 227.050781 C 113.386719 226.738281 113.289062 226.414062 113.222656 226.085938 C 113.160156 225.753906 113.125 225.417969 113.125 225.078125 C 113.125 224.742188 113.160156 224.40625 113.222656 224.074219 C 113.289062 223.742188 113.386719 223.421875 113.515625 223.109375 C 113.648438 222.796875 113.804688 222.5 113.992188 222.21875 C 114.179688 221.9375 114.394531 221.679688 114.632812 221.441406 C 114.871094 221.199219 115.132812 220.988281 115.414062 220.800781 C 115.695312 220.613281 115.992188 220.453125 116.304688 220.324219 C 116.617188 220.195312 116.9375 220.097656 117.269531 220.03125 C 117.601562 219.964844 117.933594 219.933594 118.273438 219.933594 C 128.570312 219.933594 134.148438 223.960938 138.609375 227.203125 C 142.695312 230.164062 145.910156 232.503906 152.898438 232.503906 C 159.886719 232.503906 163.105469 230.164062 167.191406 227.203125 C 171.652344 223.984375 177.199219 219.933594 187.527344 219.933594 C 197.855469 219.933594 203.40625 223.960938 207.867188 227.203125 C 211.953125 230.164062 215.175781 232.503906 222.160156 232.503906 C 229.140625 232.503906 232.371094 230.164062 236.449219 227.203125 C 240.917969 223.984375 246.464844 219.933594 256.792969 219.933594 C 257.128906 219.933594 257.464844 219.964844 257.796875 220.03125 C 258.125 220.097656 258.449219 220.195312 258.761719 220.324219 C 259.074219 220.453125 259.371094 220.613281 259.652344 220.800781 C 259.933594 220.988281 260.191406 221.199219 260.429688 221.441406 C 260.671875 221.679688 260.882812 221.9375 261.070312 222.21875 C 261.257812 222.5 261.417969 222.796875 261.546875 223.109375 C 261.675781 223.421875 261.773438 223.742188 261.839844 224.074219 C 261.90625 224.40625 261.9375 224.742188 261.9375 225.078125 C 261.9375 225.417969 261.90625 225.753906 261.839844 226.085938 C 261.773438 226.414062 261.675781 226.738281 261.546875 227.050781 C 261.417969 227.363281 261.257812 227.660156 261.070312 227.941406 C 260.882812 228.222656 260.671875 228.480469 260.429688 228.71875 C 260.191406 228.960938 259.933594 229.171875 259.652344 229.359375 C 259.371094 229.546875 259.074219 229.707031 258.761719 229.835938 C 258.449219 229.964844 258.125 230.0625 257.796875 230.128906 C 257.464844 230.195312 257.128906 230.226562 256.792969 230.226562 C 249.808594 230.226562 246.585938 232.570312 242.5 235.53125 C 238.039062 238.773438 232.492188 242.800781 222.160156 242.800781 Z M 222.160156 242.800781 " fill-opacity="1" fill-rule="nonzero"/><path fill="#ccab5c" d="M 228.445312 268.378906 C 216.765625 268.378906 210.671875 264.636719 205.28125 261.300781 C 200.460938 258.34375 196.269531 255.78125 187.519531 255.78125 C 178.769531 255.78125 174.578125 258.355469 169.753906 261.300781 C 164.378906 264.609375 158.285156 268.378906 146.585938 268.378906 C 134.886719 268.378906 128.808594 264.636719 123.421875 261.300781 C 118.59375 258.34375 114.414062 255.78125 105.660156 255.78125 C 105.324219 255.78125 104.988281 255.746094 104.65625 255.683594 C 104.324219 255.617188 104.003906 255.519531 103.691406 255.390625 C 103.378906 255.257812 103.082031 255.101562 102.800781 254.914062 C 102.519531 254.726562 102.257812 254.511719 102.019531 254.273438 C 101.78125 254.035156 101.566406 253.773438 101.378906 253.492188 C 101.191406 253.210938 101.035156 252.914062 100.90625 252.601562 C 100.773438 252.289062 100.675781 251.96875 100.613281 251.636719 C 100.546875 251.304688 100.511719 250.972656 100.511719 250.632812 C 100.511719 250.292969 100.546875 249.960938 100.613281 249.628906 C 100.675781 249.296875 100.773438 248.976562 100.90625 248.664062 C 101.035156 248.351562 101.191406 248.054688 101.378906 247.773438 C 101.566406 247.492188 101.78125 247.230469 102.019531 246.992188 C 102.257812 246.753906 102.519531 246.539062 102.800781 246.351562 C 103.082031 246.164062 103.378906 246.007812 103.691406 245.875 C 104.003906 245.746094 104.324219 245.648438 104.65625 245.582031 C 104.988281 245.519531 105.324219 245.484375 105.660156 245.484375 C 117.347656 245.484375 123.433594 249.230469 128.828125 252.5625 C 133.644531 255.53125 137.835938 258.089844 146.585938 258.089844 C 155.339844 258.089844 159.527344 255.515625 164.347656 252.5625 C 169.726562 249.261719 175.820312 245.484375 187.511719 245.484375 C 199.207031 245.484375 205.285156 249.230469 210.679688 252.5625 C 215.5 255.53125 219.6875 258.089844 228.4375 258.089844 C 237.191406 258.089844 241.378906 255.515625 246.207031 252.5625 C 251.578125 249.261719 257.671875 245.484375 269.371094 245.484375 C 269.710938 245.484375 270.042969 245.519531 270.375 245.582031 C 270.707031 245.648438 271.027344 245.746094 271.339844 245.875 C 271.652344 246.007812 271.949219 246.164062 272.230469 246.351562 C 272.511719 246.539062 272.773438 246.753906 273.011719 246.992188 C 273.25 247.230469 273.464844 247.492188 273.652344 247.773438 C 273.839844 248.054688 274 248.351562 274.128906 248.664062 C 274.257812 248.976562 274.355469 249.296875 274.421875 249.628906 C 274.484375 249.960938 274.519531 250.292969 274.519531 250.632812 C 274.519531 250.972656 274.484375 251.304688 274.421875 251.636719 C 274.355469 251.96875 274.257812 252.289062 274.128906 252.601562 C 273.996094 252.914062 273.839844 253.210938 273.652344 253.492188 C 273.464844 253.773438 273.25 254.035156 273.011719 254.273438 C 272.773438 254.511719 272.511719 254.726562 272.230469 254.914062 C 271.949219 255.101562 271.652344 255.257812 271.339844 255.390625 C 271.027344 255.519531 270.707031 255.617188 270.375 255.683594 C 270.042969 255.746094 269.710938 255.78125 269.371094 255.78125 C 260.601562 255.78125 256.429688 258.355469 251.609375 261.300781 C 246.226562 264.636719 240.132812 268.378906 228.445312 268.378906 Z M 228.445312 268.378906 " fill-opacity="1" fill-rule="nonzero"/><path fill="#ccab5c" d="M 231.59375 293.953125 C 219.210938 293.953125 212.730469 290.253906 207.011719 286.988281 C 201.734375 283.980469 197.179688 281.378906 187.53125 281.378906 C 177.886719 281.378906 173.324219 283.953125 168.054688 286.988281 C 162.332031 290.253906 155.828125 293.953125 143.472656 293.953125 C 131.117188 293.953125 124.605469 290.253906 118.890625 286.988281 C 113.613281 283.980469 109.058594 281.378906 99.414062 281.378906 C 99.074219 281.378906 98.738281 281.347656 98.40625 281.28125 C 98.078125 281.214844 97.753906 281.117188 97.441406 280.988281 C 97.128906 280.859375 96.832031 280.699219 96.550781 280.511719 C 96.269531 280.324219 96.011719 280.109375 95.773438 279.871094 C 95.535156 279.632812 95.320312 279.371094 95.132812 279.089844 C 94.945312 278.808594 94.785156 278.511719 94.65625 278.199219 C 94.527344 277.886719 94.429688 277.566406 94.363281 277.234375 C 94.296875 276.902344 94.265625 276.570312 94.265625 276.230469 C 94.265625 275.894531 94.296875 275.558594 94.363281 275.226562 C 94.429688 274.894531 94.527344 274.574219 94.65625 274.261719 C 94.785156 273.949219 94.945312 273.652344 95.132812 273.371094 C 95.320312 273.089844 95.535156 272.828125 95.773438 272.589844 C 96.011719 272.351562 96.269531 272.136719 96.550781 271.949219 C 96.832031 271.761719 97.128906 271.605469 97.441406 271.476562 C 97.753906 271.34375 98.078125 271.246094 98.40625 271.183594 C 98.738281 271.117188 99.074219 271.082031 99.414062 271.082031 C 111.792969 271.082031 118.273438 274.78125 123.992188 278.050781 C 129.265625 281.058594 133.820312 283.65625 143.472656 283.65625 C 153.125 283.65625 157.675781 281.082031 162.949219 278.050781 C 168.664062 274.78125 175.175781 271.082031 187.53125 271.082031 C 199.886719 271.082031 206.394531 274.78125 212.113281 278.050781 C 217.382812 281.058594 221.941406 283.65625 231.59375 283.65625 C 241.246094 283.65625 245.792969 281.082031 251.070312 278.050781 C 256.792969 274.78125 263.296875 271.082031 275.652344 271.082031 C 275.988281 271.082031 276.324219 271.117188 276.65625 271.183594 C 276.988281 271.246094 277.308594 271.34375 277.621094 271.476562 C 277.933594 271.605469 278.230469 271.761719 278.511719 271.949219 C 278.792969 272.136719 279.054688 272.351562 279.292969 272.589844 C 279.53125 272.828125 279.746094 273.089844 279.933594 273.371094 C 280.121094 273.652344 280.277344 273.949219 280.40625 274.261719 C 280.539062 274.574219 280.636719 274.894531 280.699219 275.226562 C 280.765625 275.558594 280.800781 275.894531 280.800781 276.230469 C 280.800781 276.570312 280.765625 276.902344 280.699219 277.234375 C 280.636719 277.566406 280.539062 277.886719 280.40625 278.199219 C 280.277344 278.511719 280.121094 278.808594 279.933594 279.089844 C 279.746094 279.371094 279.53125 279.632812 279.292969 279.871094 C 279.054688 280.109375 278.792969 280.324219 278.511719 280.511719 C 278.230469 280.699219 277.933594 280.859375 277.621094 280.988281 C 277.308594 281.117188 276.988281 281.214844 276.65625 281.28125 C 276.324219 281.347656 275.988281 281.378906 275.652344 281.378906 C 266 281.378906 261.449219 283.953125 256.171875 286.988281 C 250.453125 290.253906 243.972656 293.953125 231.59375 293.953125 Z M 231.59375 293.953125 " fill-opacity="1" fill-rule="nonzero"/></svg>