<svg xmlns="http://www.w3.org/2000/svg" xmlns:xlink="http://www.w3.org/1999/xlink" width="500" zoomAndPan="magnify" viewBox="0 0 375 374.999991" height="500" preserveAspectRatio="xMidYMid meet" version="1.0"><defs><clipPath id="c30ff197a1"><path d="M 10 320 L 366 320 L 366 337.5 L 10 337.5 Z M 10 320 " clip-rule="nonzero"/></clipPath></defs><path fill="#ccab5c" d="M 64.609375 252.511719 C 57.015625 252.511719 50.230469 249.171875 45.066406 242.742188 C 31.800781 226.03125 13.574219 230.589844 12.8125 230.792969 C 9.320312 231.753906 6.28125 228.007812 8.003906 224.765625 C 25.421875 191.5 53.472656 191.957031 54.738281 192.007812 C 85.824219 192.96875 98.078125 205.019531 91.75 235.296875 C 89.976562 243.90625 76.410156 252.511719 64.609375 252.511719 Z M 64.609375 252.511719 " fill-opacity="1" fill-rule="evenodd"/><path fill="#ccab5c" d="M 101.574219 260.5625 C 99.75 260.5625 98.078125 259.347656 97.523438 257.523438 C 93.015625 241.878906 83.34375 230.890625 68.761719 224.816406 C 57.675781 220.207031 47.648438 220.359375 47.546875 220.359375 C 45.269531 220.359375 43.34375 218.539062 43.292969 216.207031 C 43.242188 213.878906 45.066406 211.957031 47.394531 211.90625 C 47.851562 211.90625 58.992188 211.703125 71.699219 216.917969 C 83.546875 221.777344 99.042969 232.308594 105.625 255.144531 C 106.433594 257.828125 104.410156 260.5625 101.574219 260.5625 Z M 101.574219 260.5625 " fill-opacity="1" fill-rule="evenodd"/><path fill="#ccab5c" d="M 101.574219 289.375 C 99.242188 289.375 97.371094 287.5 97.371094 285.171875 L 97.371094 122.84375 C 97.371094 120.511719 99.242188 118.589844 101.574219 118.589844 C 103.902344 118.589844 105.773438 120.511719 105.773438 122.84375 L 105.773438 285.171875 C 105.773438 287.5 103.902344 289.375 101.574219 289.375 Z M 101.574219 289.375 " fill-opacity="1" fill-rule="evenodd"/><path fill="#ccab5c" d="M 138.535156 211.550781 C 126.789062 211.550781 113.21875 202.890625 111.394531 194.285156 C 105.117188 164.109375 117.320312 151.957031 148.457031 150.992188 C 149.625 150.941406 177.722656 150.4375 195.191406 183.753906 C 196.863281 187.042969 193.875 190.742188 190.332031 189.828125 C 189.574219 189.625 171.34375 185.070312 158.078125 201.726562 C 152.964844 208.15625 146.179688 211.550781 138.535156 211.550781 Z M 138.535156 211.550781 " fill-opacity="1" fill-rule="evenodd"/><path fill="#ccab5c" d="M 101.574219 219.550781 C 98.789062 219.550781 96.761719 216.867188 97.523438 214.132812 C 104.105469 191.296875 119.648438 180.765625 131.496094 175.90625 C 144.207031 170.691406 155.292969 170.890625 155.75 170.890625 C 158.078125 170.941406 159.953125 172.867188 159.902344 175.195312 C 159.851562 177.523438 157.875 179.347656 155.597656 179.296875 C 155.394531 179.296875 145.472656 179.246094 134.382812 183.804688 C 119.851562 189.878906 110.179688 200.867188 105.625 216.460938 C 105.117188 218.335938 103.394531 219.550781 101.574219 219.550781 Z M 101.574219 219.550781 " fill-opacity="1" fill-rule="evenodd"/><path fill="#ccab5c" d="M 64.609375 174.488281 C 57.015625 174.488281 50.230469 171.144531 45.066406 164.664062 C 31.648438 147.855469 13.015625 152.714844 12.8125 152.765625 C 9.371094 153.726562 6.230469 150.03125 8.003906 146.742188 C 25.472656 113.425781 53.523438 113.929688 54.738281 113.929688 C 85.875 114.890625 98.027344 127.042969 91.75 157.222656 C 89.976562 165.828125 76.359375 174.488281 64.609375 174.488281 Z M 64.609375 174.488281 " fill-opacity="1" fill-rule="evenodd"/><path fill="#ccab5c" d="M 101.574219 182.488281 C 99.75 182.488281 98.078125 181.324219 97.523438 179.449219 C 86.6875 141.929688 47.953125 142.285156 47.597656 142.285156 C 45.269531 142.335938 43.34375 140.460938 43.292969 138.132812 C 43.242188 135.804688 45.066406 133.878906 47.394531 133.828125 C 47.851562 133.828125 58.992188 133.675781 71.699219 138.84375 C 83.546875 143.703125 99.042969 154.234375 105.625 177.121094 C 106.433594 179.855469 104.359375 182.488281 101.574219 182.488281 Z M 101.574219 182.488281 " fill-opacity="1" fill-rule="evenodd"/><path fill="#ccab5c" d="M 138.535156 141.980469 C 126.789062 141.980469 113.21875 133.324219 111.394531 124.714844 C 105.117188 94.539062 117.320312 82.335938 148.457031 81.425781 C 149.675781 81.375 177.722656 80.917969 195.191406 114.183594 C 196.863281 117.476562 193.875 121.171875 190.332031 120.257812 C 189.574219 120.058594 171.34375 115.5 158.078125 132.160156 C 152.964844 138.589844 146.179688 141.980469 138.535156 141.980469 Z M 138.535156 141.980469 " fill-opacity="1" fill-rule="evenodd"/><path fill="#ccab5c" d="M 101.574219 149.980469 C 98.789062 149.980469 96.761719 147.296875 97.523438 144.5625 C 104.105469 121.726562 119.648438 111.195312 131.496094 106.335938 C 144.207031 101.121094 155.292969 101.324219 155.75 101.324219 C 158.078125 101.375 159.953125 103.296875 159.902344 105.625 C 159.851562 107.957031 157.875 109.777344 155.597656 109.777344 C 155.394531 109.726562 145.472656 109.675781 134.382812 114.234375 C 119.851562 120.308594 110.179688 131.296875 105.625 146.941406 C 105.117188 148.765625 103.394531 149.980469 101.574219 149.980469 Z M 101.574219 149.980469 " fill-opacity="1" fill-rule="evenodd"/><path fill="#ccab5c" d="M 76.761719 109.171875 C 65.21875 109.171875 56.105469 103.296875 52.054688 92.410156 C 44.507812 72.257812 25.269531 71.09375 25.066406 71.09375 C 21.472656 70.941406 19.699219 66.488281 22.332031 63.855469 C 49.269531 37.574219 75.800781 46.742188 76.914062 47.144531 C 106.230469 57.675781 114.078125 72.96875 98.738281 99.753906 C 95.597656 105.222656 86.128906 109.171875 76.761719 109.171875 Z M 76.761719 109.171875 " fill-opacity="1" fill-rule="evenodd"/><path fill="#ccab5c" d="M 101.574219 127.042969 C 99.191406 127.042969 97.269531 125.070312 97.371094 122.691406 C 98.636719 83.652344 61.726562 72.007812 61.371094 71.90625 C 59.140625 71.195312 57.875 68.867188 58.535156 66.640625 C 59.242188 64.410156 61.574219 63.144531 63.800781 63.804688 C 64.257812 63.957031 74.890625 67.195312 85.371094 76.109375 C 95.089844 84.359375 106.585938 99.195312 105.824219 122.941406 C 105.726562 125.222656 103.851562 127.042969 101.574219 127.042969 Z M 101.574219 127.042969 " fill-opacity="1" fill-rule="evenodd"/><path fill="#ccab5c" d="M 161.472656 333.222656 L 41.675781 333.222656 C 39.34375 333.222656 37.472656 331.347656 37.472656 329.019531 C 37.472656 315.90625 44.308594 303.703125 56.710938 294.589844 C 81.625 276.410156 121.523438 276.410156 146.433594 294.589844 C 158.839844 303.703125 165.726562 315.90625 165.726562 329.019531 C 165.726562 331.347656 163.800781 333.222656 161.472656 333.222656 Z M 161.472656 333.222656 " fill-opacity="1" fill-rule="evenodd"/><g clip-path="url(#c30ff197a1)"><path fill="#ccab5c" d="M 356.558594 337.425781 L 18.636719 337.425781 C 13.976562 337.425781 10.230469 333.675781 10.230469 329.019531 C 10.230469 324.359375 13.976562 320.5625 18.636719 320.5625 L 356.558594 320.5625 C 361.21875 320.5625 365.015625 324.359375 365.015625 329.019531 C 365.015625 333.675781 361.21875 337.425781 356.558594 337.425781 Z M 356.558594 337.425781 " fill-opacity="1" fill-rule="evenodd"/></g><path fill="#ccab5c" d="M 236.507812 252.511719 C 228.863281 252.511719 222.078125 249.171875 216.964844 242.742188 C 203.648438 226.03125 185.472656 230.589844 184.710938 230.792969 C 181.167969 231.753906 178.179688 228.007812 179.851562 224.765625 C 197.320312 191.5 225.320312 191.957031 226.636719 192.007812 C 257.722656 192.96875 269.976562 205.019531 263.648438 235.296875 C 261.875 243.90625 248.257812 252.511719 236.507812 252.511719 Z M 236.507812 252.511719 " fill-opacity="1" fill-rule="evenodd"/><path fill="#ccab5c" d="M 273.472656 260.5625 C 271.648438 260.5625 269.925781 259.347656 269.421875 257.523438 C 264.914062 241.878906 255.242188 230.890625 240.660156 224.816406 C 229.523438 220.207031 219.546875 220.359375 219.445312 220.359375 C 217.117188 220.359375 215.191406 218.539062 215.140625 216.207031 C 215.140625 213.878906 216.964844 211.957031 219.292969 211.90625 C 219.75 211.90625 230.890625 211.703125 243.546875 216.917969 C 255.394531 221.777344 270.941406 232.308594 277.523438 255.144531 C 278.28125 257.828125 276.308594 260.5625 273.472656 260.5625 Z M 273.472656 260.5625 " fill-opacity="1" fill-rule="evenodd"/><path fill="#ccab5c" d="M 273.472656 289.375 C 271.140625 289.375 269.269531 287.5 269.269531 285.171875 L 269.269531 122.84375 C 269.269531 120.511719 271.140625 118.589844 273.472656 118.589844 C 275.800781 118.589844 277.675781 120.511719 277.675781 122.84375 L 277.675781 285.171875 C 277.675781 287.5 275.800781 289.375 273.472656 289.375 Z M 273.472656 289.375 " fill-opacity="1" fill-rule="evenodd"/><path fill="#ccab5c" d="M 310.433594 211.550781 C 298.636719 211.550781 285.066406 202.890625 283.292969 194.285156 C 277.015625 164.109375 289.167969 151.957031 320.308594 150.992188 C 321.523438 150.941406 349.574219 150.4375 367.089844 183.753906 C 368.761719 187.042969 365.722656 190.742188 362.230469 189.828125 C 361.472656 189.625 343.242188 185.070312 329.976562 201.726562 C 324.863281 208.15625 318.027344 211.550781 310.433594 211.550781 Z M 310.433594 211.550781 " fill-opacity="1" fill-rule="evenodd"/><path fill="#ccab5c" d="M 273.472656 219.550781 C 270.6875 219.550781 268.609375 216.867188 269.421875 214.132812 C 276.003906 191.296875 291.496094 180.765625 303.34375 175.90625 C 316.054688 170.691406 327.191406 170.890625 327.648438 170.890625 C 329.976562 170.941406 331.800781 172.867188 331.800781 175.195312 C 331.75 177.523438 329.824219 179.347656 327.496094 179.296875 C 327.292969 179.296875 317.371094 179.246094 306.28125 183.804688 C 291.699219 189.878906 282.027344 200.867188 277.523438 216.460938 C 276.964844 218.335938 275.292969 219.550781 273.472656 219.550781 Z M 273.472656 219.550781 " fill-opacity="1" fill-rule="evenodd"/><path fill="#ccab5c" d="M 236.507812 174.488281 C 228.863281 174.488281 222.078125 171.144531 216.964844 164.664062 C 203.648438 148.007812 185.472656 152.5625 184.710938 152.765625 C 181.167969 153.675781 178.179688 149.929688 179.851562 146.742188 C 197.320312 113.425781 225.421875 113.929688 226.636719 113.929688 C 257.722656 114.890625 269.925781 127.042969 263.648438 157.222656 C 261.824219 165.828125 248.257812 174.488281 236.507812 174.488281 Z M 236.507812 174.488281 " fill-opacity="1" fill-rule="evenodd"/><path fill="#ccab5c" d="M 273.472656 182.488281 C 271.648438 182.488281 269.925781 181.324219 269.421875 179.449219 C 258.535156 141.878906 219.800781 142.285156 219.394531 142.285156 C 217.066406 142.285156 215.191406 140.460938 215.140625 138.132812 C 215.089844 135.804688 216.964844 133.878906 219.292969 133.828125 C 219.75 133.828125 230.839844 133.675781 243.546875 138.84375 C 255.394531 143.703125 270.941406 154.234375 277.523438 177.121094 C 278.28125 179.804688 276.257812 182.488281 273.472656 182.488281 Z M 273.472656 182.488281 " fill-opacity="1" fill-rule="evenodd"/><path fill="#ccab5c" d="M 310.433594 141.980469 C 298.636719 141.980469 285.066406 133.324219 283.292969 124.714844 C 277.015625 94.539062 289.167969 82.335938 320.308594 81.425781 C 321.574219 81.375 349.625 80.917969 367.089844 114.183594 C 368.761719 117.476562 365.722656 121.171875 362.230469 120.257812 C 361.472656 120.058594 343.242188 115.449219 329.976562 132.160156 C 324.863281 138.589844 318.027344 141.980469 310.433594 141.980469 Z M 310.433594 141.980469 " fill-opacity="1" fill-rule="evenodd"/><path fill="#ccab5c" d="M 273.472656 149.980469 C 270.6875 149.980469 268.609375 147.296875 269.421875 144.5625 C 276.003906 121.726562 291.496094 111.195312 303.34375 106.335938 C 316.054688 101.121094 327.191406 101.324219 327.648438 101.324219 C 329.976562 101.375 331.800781 103.296875 331.800781 105.625 C 331.75 107.957031 329.824219 109.777344 327.496094 109.777344 C 327.292969 109.726562 317.371094 109.675781 306.28125 114.234375 C 291.699219 120.308594 282.027344 131.296875 277.523438 146.941406 C 276.964844 148.765625 275.292969 149.980469 273.472656 149.980469 Z M 273.472656 149.980469 " fill-opacity="1" fill-rule="evenodd"/><path fill="#ccab5c" d="M 248.660156 109.171875 C 237.117188 109.171875 228.003906 103.296875 223.953125 92.410156 C 216.40625 72.257812 197.167969 71.09375 196.964844 71.09375 C 193.371094 70.941406 191.546875 66.488281 194.230469 63.855469 C 221.117188 37.625 247.597656 46.742188 248.8125 47.144531 C 278.128906 57.675781 285.976562 73.019531 270.636719 99.804688 C 267.496094 105.222656 258.027344 109.171875 248.660156 109.171875 Z M 248.660156 109.171875 " fill-opacity="1" fill-rule="evenodd"/><path fill="#ccab5c" d="M 273.472656 127.042969 C 271.089844 127.042969 269.167969 125.070312 269.269531 122.691406 C 269.773438 106.4375 264.003906 92.96875 252.003906 82.742188 C 242.839844 74.890625 233.320312 71.90625 233.21875 71.90625 C 231.039062 71.195312 229.773438 68.867188 230.433594 66.640625 C 231.140625 64.410156 233.472656 63.144531 235.699219 63.804688 C 236.15625 63.957031 246.738281 67.195312 257.21875 76.109375 C 266.992188 84.359375 278.484375 99.195312 277.675781 122.941406 C 277.625 125.222656 275.75 127.042969 273.472656 127.042969 Z M 273.472656 127.042969 " fill-opacity="1" fill-rule="evenodd"/><path fill="#ccab5c" d="M 333.371094 333.222656 L 213.574219 333.222656 C 211.242188 333.222656 209.320312 331.347656 209.320312 329.019531 C 209.320312 315.90625 216.207031 303.703125 228.609375 294.589844 C 253.523438 276.410156 293.421875 276.410156 318.332031 294.589844 C 330.738281 303.703125 337.625 315.90625 337.625 329.019531 C 337.574219 331.347656 335.699219 333.222656 333.371094 333.222656 Z M 333.371094 333.222656 " fill-opacity="1" fill-rule="evenodd"/></svg>