<svg xmlns="http://www.w3.org/2000/svg" xmlns:xlink="http://www.w3.org/1999/xlink" width="500" zoomAndPan="magnify" viewBox="0 0 375 374.999991" height="500" preserveAspectRatio="xMidYMid meet" version="1.0"><defs><clipPath id="795d9db563"><path d="M 193 37.5 L 371.882812 37.5 L 371.882812 337.5 L 193 337.5 Z M 193 37.5 " clip-rule="nonzero"/></clipPath></defs><g clip-path="url(#795d9db563)"><path fill="#ccab5c" d="M 359.089844 75.214844 C 357.648438 74.640625 355.921875 74.351562 354.484375 74.351562 C 353.042969 74.351562 351.316406 74.640625 349.875 75.214844 C 346.996094 76.65625 337.207031 81.550781 337.207031 91.339844 L 337.207031 122.722656 C 314.75 119.265625 299.492188 106.308594 283.65625 92.203125 C 264.078125 75.503906 242.199219 56.214844 204.769531 54.488281 L 204.769531 43.257812 C 204.769531 40.089844 202.179688 37.5 199.011719 37.5 C 195.84375 37.5 193.253906 40.089844 193.253906 43.257812 L 193.253906 288.554688 C 193.253906 291.433594 195.269531 293.738281 198.148438 294.3125 L 337.207031 318.210938 L 337.207031 325.984375 C 337.207031 332.316406 342.390625 337.5 348.722656 337.5 L 360.242188 337.5 C 366.574219 337.5 371.757812 332.316406 371.757812 325.984375 L 371.757812 91.339844 C 371.757812 81.550781 362.257812 76.367188 359.089844 75.214844 Z M 222.042969 286.539062 L 204.769531 283.660156 L 204.769531 103.144531 C 211.105469 103.429688 216.863281 104.292969 222.042969 105.734375 Z M 250.835938 119.554688 L 250.835938 291.433594 L 233.5625 288.554688 C 233.5625 288.269531 233.5625 287.980469 233.5625 287.691406 L 233.5625 109.476562 C 239.894531 112.066406 245.652344 115.523438 250.835938 118.976562 C 250.835938 119.265625 250.835938 119.554688 250.835938 119.554688 Z M 279.625 296.328125 L 262.351562 293.449219 L 262.351562 127.902344 C 266.671875 131.359375 270.703125 135.390625 275.019531 139.132812 C 276.460938 140.570312 278.1875 142.011719 279.625 143.164062 Z M 308.417969 301.222656 L 291.144531 298.34375 L 291.144531 153.238281 C 296.613281 157.558594 302.082031 161.589844 308.417969 165.042969 Z M 337.207031 174.542969 L 337.207031 306.40625 L 319.933594 303.527344 L 319.933594 170.226562 C 325.402344 171.953125 330.875 173.390625 337.207031 174.542969 Z M 337.207031 162.738281 C 314.464844 159.285156 298.917969 145.464844 282.792969 130.78125 C 263.503906 113.21875 241.621094 93.640625 204.769531 91.625 L 204.769531 66.003906 C 237.59375 67.730469 256.304688 83.851562 275.882812 100.839844 C 292.871094 115.523438 310.433594 130.78125 337.207031 134.238281 Z M 360.242188 325.40625 L 348.722656 325.40625 L 348.722656 91.339844 C 348.722656 88.171875 354.484375 85.582031 354.484375 85.582031 C 354.484375 85.582031 360.242188 88.171875 360.242188 91.339844 Z M 360.242188 325.40625 " fill-opacity="1" fill-rule="nonzero"/></g><path fill="#ccab5c" d="M 14.75 336.925781 L 26.265625 336.925781 C 32.601562 336.925781 37.785156 331.742188 37.785156 325.40625 L 37.785156 322.527344 L 175.980469 322.527344 C 179.148438 322.527344 181.738281 319.9375 181.738281 316.769531 L 181.738281 54.773438 C 181.738281 51.609375 179.148438 49.015625 175.980469 49.015625 C 172.8125 49.015625 170.222656 51.609375 170.222656 54.773438 L 170.222656 63.125 C 133.65625 64.5625 112.640625 80.398438 92.488281 95.945312 C 76.363281 108.324219 60.816406 119.839844 37.785156 123.007812 L 37.785156 91.339844 C 37.785156 81.550781 28.28125 76.367188 25.117188 75.214844 C 23.675781 74.640625 21.949219 74.351562 20.507812 74.351562 C 19.070312 74.351562 17.34375 74.640625 15.902344 75.214844 C 13.023438 76.65625 3.234375 81.550781 3.234375 91.339844 L 3.234375 325.40625 C 3.234375 331.742188 8.417969 336.925781 14.75 336.925781 Z M 83.847656 311.300781 L 66.574219 311.300781 L 66.574219 166.195312 C 72.910156 163.316406 78.378906 159.859375 83.847656 156.117188 Z M 112.640625 311.300781 L 95.367188 311.300781 L 95.367188 147.769531 C 96.804688 146.617188 97.957031 145.753906 99.394531 144.601562 C 103.714844 141.148438 108.035156 137.980469 112.640625 134.8125 Z M 141.429688 311.300781 L 124.15625 311.300781 L 124.15625 127.613281 C 129.625 124.449219 135.097656 121.855469 141.429688 119.554688 Z M 170.222656 311.300781 L 152.945312 311.300781 L 152.945312 116.675781 C 158.128906 115.523438 163.886719 114.945312 170.222656 114.660156 Z M 37.785156 134.238281 C 64.558594 131.070312 82.410156 117.828125 99.394531 104.871094 C 118.972656 89.898438 137.398438 76.078125 170.222656 74.640625 L 170.222656 103.144531 C 133.65625 104.582031 112.640625 120.417969 92.488281 135.964844 C 76.363281 148.34375 60.816406 159.859375 37.785156 163.027344 Z M 37.785156 174.542969 C 44.117188 173.679688 49.589844 172.527344 55.058594 170.800781 L 55.058594 311.300781 L 37.785156 311.300781 Z M 14.75 91.339844 C 14.75 88.171875 20.507812 85.582031 20.507812 85.582031 C 20.507812 85.582031 26.265625 88.171875 26.265625 91.339844 L 26.265625 325.695312 L 14.75 325.695312 Z M 14.75 91.339844 " fill-opacity="1" fill-rule="nonzero"/></svg>