<svg xmlns="http://www.w3.org/2000/svg" xmlns:xlink="http://www.w3.org/1999/xlink" width="500" zoomAndPan="magnify" viewBox="0 0 375 374.999991" height="500" preserveAspectRatio="xMidYMid meet" version="1.0"><defs><clipPath id="fd4989905d"><path d="M 21.753906 37.5 L 353 37.5 L 353 337.5 L 21.753906 337.5 Z M 21.753906 37.5 " clip-rule="nonzero"/></clipPath></defs><path fill="#ccab5c" d="M 297.539062 223.816406 C 278.738281 215.339844 254.273438 210.042969 227.789062 208.589844 C 228.417969 206.765625 228.746094 204.914062 228.746094 203.027344 C 228.746094 179.523438 180.777344 166.808594 135.621094 166.808594 C 90.464844 166.808594 42.53125 179.488281 42.53125 203.027344 C 42.53125 209.847656 46.734375 219.710938 66.828125 227.988281 C 77.621094 232.457031 91.558594 235.765625 106.953125 237.589844 C 98.609375 245.136719 94.273438 253.609375 94.273438 262.515625 C 94.273438 277.84375 107.21875 291.882812 130.722656 302.011719 C 152.835938 311.578125 182.167969 316.84375 213.253906 316.84375 C 244.339844 316.84375 273.636719 311.578125 295.785156 302.011719 C 319.289062 291.847656 332.234375 277.84375 332.234375 262.515625 C 332.234375 247.1875 319.886719 233.878906 297.539062 223.816406 Z M 213.222656 306.480469 C 148.234375 306.480469 104.601562 283.738281 104.601562 262.515625 C 104.601562 251.757812 115.03125 243.28125 123.769531 238.085938 C 125.722656 236.925781 126.683594 234.640625 126.152344 232.425781 C 125.625 230.207031 123.703125 228.617188 121.421875 228.484375 C 101.6875 227.324219 83.679688 223.75 70.734375 218.421875 C 59.546875 213.785156 52.859375 208.058594 52.859375 203.027344 C 52.859375 192.234375 84.34375 177.171875 135.621094 177.171875 C 186.902344 177.171875 218.386719 192.234375 218.386719 203.027344 C 218.386719 205.144531 217.195312 207.429688 214.84375 209.746094 C 213.351562 211.203125 212.921875 213.421875 213.683594 215.339844 C 214.445312 217.261719 216.300781 218.554688 218.386719 218.585938 C 246.988281 219.148438 273.570312 224.347656 293.269531 233.21875 C 311.410156 241.394531 321.839844 252.089844 321.839844 262.484375 C 321.871094 283.738281 278.207031 306.480469 213.222656 306.480469 Z M 213.222656 306.480469 " fill-opacity="1" fill-rule="nonzero"/><g clip-path="url(#fd4989905d)"><path fill="#ccab5c" d="M 332.203125 221.167969 L 332.203125 197.863281 L 347.726562 197.863281 C 349.316406 197.863281 350.839844 197.132812 351.800781 195.84375 C 352.792969 194.585938 353.125 192.929688 352.726562 191.375 L 346.4375 166.808594 L 347.726562 166.808594 C 349.382812 166.808594 350.9375 166.015625 351.933594 164.65625 C 352.890625 163.300781 353.15625 161.578125 352.628906 159.988281 L 331.9375 97.917969 C 331.242188 95.796875 329.253906 94.375 327.035156 94.375 C 324.820312 94.375 322.832031 95.796875 322.136719 97.917969 L 301.445312 159.988281 C 300.917969 161.578125 301.183594 163.300781 302.140625 164.65625 C 303.101562 166.015625 304.691406 166.808594 306.347656 166.808594 L 307.636719 166.808594 L 301.347656 191.375 C 300.949219 192.929688 301.28125 194.550781 302.273438 195.84375 C 303.265625 197.132812 304.757812 197.863281 306.347656 197.863281 L 321.871094 197.863281 L 321.871094 213.453125 C 317.304688 210.507812 312.039062 207.660156 306.046875 204.945312 C 296.878906 200.808594 286.515625 197.332031 275.292969 194.585938 L 275.292969 177.136719 L 290.820312 177.136719 C 292.441406 177.136719 293.964844 176.375 294.957031 175.085938 C 295.917969 173.792969 296.25 172.105469 295.820312 170.550781 L 275.09375 98.148438 C 274.464844 95.929688 272.445312 94.40625 270.128906 94.40625 C 267.8125 94.40625 265.792969 95.929688 265.164062 98.148438 L 244.472656 170.582031 C 244.042969 172.140625 244.339844 173.828125 245.332031 175.117188 C 246.328125 176.410156 247.847656 177.171875 249.472656 177.171875 L 264.996094 177.171875 L 264.996094 192.332031 C 259.136719 191.207031 253.144531 190.246094 246.957031 189.484375 C 244.339844 182.667969 239.738281 176.476562 233.28125 171.078125 C 226.496094 165.417969 217.457031 160.550781 206.46875 156.679688 C 197.726562 153.601562 187.761719 151.152344 177.070312 149.363281 L 177.070312 135.757812 L 192.597656 135.757812 C 194.25 135.757812 195.773438 134.960938 196.769531 133.671875 C 197.726562 132.347656 198.027344 130.660156 197.5625 129.070312 L 191.667969 109.902344 L 192.628906 109.902344 C 194.285156 109.902344 195.839844 109.105469 196.835938 107.75 C 197.792969 106.390625 198.058594 104.671875 197.527344 103.082031 L 176.773438 41.042969 C 176.078125 38.921875 174.089844 37.5 171.871094 37.5 C 169.65625 37.5 167.667969 38.921875 166.972656 41.042969 L 146.28125 103.113281 C 145.753906 104.703125 146.015625 106.425781 146.976562 107.78125 C 147.9375 109.140625 149.527344 109.933594 151.183594 109.933594 L 152.140625 109.933594 L 146.25 129.101562 C 145.753906 130.660156 146.050781 132.378906 147.042969 133.703125 C 148.003906 135.027344 149.558594 135.789062 151.214844 135.789062 L 166.742188 135.789062 L 166.742188 147.9375 C 156.777344 146.746094 146.347656 146.152344 135.6875 146.152344 C 128.671875 146.152344 121.75 146.417969 114.996094 146.945312 L 114.996094 135.789062 L 130.523438 135.789062 C 132.144531 135.789062 133.667969 135.027344 134.664062 133.738281 C 135.621094 132.445312 135.953125 130.757812 135.523438 129.203125 L 114.765625 56.765625 C 114.136719 54.550781 112.117188 53.027344 109.800781 53.027344 C 107.484375 53.027344 105.464844 54.550781 104.835938 56.765625 L 84.144531 129.203125 C 83.714844 130.757812 84.011719 132.445312 85.003906 133.738281 C 85.996094 135.027344 87.519531 135.789062 89.140625 135.789062 L 104.667969 135.789062 L 104.667969 147.9375 C 90.003906 149.695312 76.429688 152.640625 64.910156 156.710938 C 53.917969 160.585938 44.914062 165.417969 38.09375 171.113281 C 24.652344 182.269531 21.839844 194.617188 21.839844 203.027344 C 21.839844 210.738281 24.222656 222.160156 35.644531 232.820312 C 41.539062 238.351562 49.382812 243.148438 58.949219 247.089844 C 63.785156 249.074219 69.046875 250.863281 74.675781 252.417969 C 73.945312 255.761719 73.550781 259.140625 73.550781 262.484375 C 73.550781 276.421875 79.90625 302.574219 122.480469 320.980469 C 147.144531 331.640625 179.355469 337.5 213.1875 337.5 C 247.023438 337.5 279.265625 331.640625 303.894531 320.980469 C 346.535156 302.605469 352.890625 276.488281 352.890625 262.515625 C 352.890625 252.617188 349.648438 236.363281 332.203125 221.167969 Z M 313 187.5 L 319.289062 162.9375 C 319.6875 161.378906 319.355469 159.757812 318.363281 158.464844 C 317.371094 157.207031 315.878906 156.445312 314.292969 156.445312 L 313.496094 156.445312 L 327.003906 115.894531 L 340.511719 156.445312 L 339.714844 156.445312 C 338.128906 156.445312 336.605469 157.175781 335.644531 158.464844 C 334.652344 159.726562 334.320312 161.378906 334.71875 162.9375 L 341.007812 187.5 Z M 256.292969 166.808594 L 270.128906 118.410156 L 283.96875 166.84375 L 256.292969 166.84375 Z M 158.167969 125.425781 L 164.058594 106.257812 C 164.554688 104.703125 164.257812 102.980469 163.265625 101.65625 C 162.304688 100.332031 160.75 99.574219 159.09375 99.574219 L 158.300781 99.574219 L 171.839844 59.019531 L 185.347656 99.574219 L 184.550781 99.574219 C 182.898438 99.574219 181.375 100.367188 180.378906 101.65625 C 179.421875 102.980469 179.121094 104.671875 179.585938 106.257812 L 185.480469 125.425781 Z M 95.929688 125.425781 L 109.765625 76.996094 L 123.605469 125.425781 Z M 299.859375 311.511719 C 276.453125 321.609375 245.699219 327.171875 213.222656 327.171875 C 180.746094 327.171875 149.988281 321.609375 126.617188 311.511719 C 89.472656 295.457031 83.910156 273.9375 83.910156 262.515625 C 83.910156 258.511719 84.605469 254.4375 85.964844 250.433594 C 86.429688 249.042969 86.296875 247.554688 85.601562 246.261719 C 84.90625 245.003906 83.714844 244.078125 82.289062 243.710938 C 75.207031 241.992188 68.648438 239.90625 62.890625 237.523438 C 54.480469 234.046875 47.695312 229.941406 42.730469 225.273438 C 34.023438 217.128906 32.203125 208.652344 32.203125 203.027344 C 32.203125 196.835938 34.351562 187.632812 44.683594 179.023438 C 50.542969 174.160156 58.488281 169.921875 68.285156 166.445312 C 86.527344 160.023438 110.429688 156.480469 135.621094 156.480469 C 160.816406 156.480469 184.75 160.023438 202.957031 166.445312 C 212.789062 169.921875 220.734375 174.160156 226.59375 179.023438 C 232.488281 183.925781 236.328125 189.519531 238.050781 195.675781 C 238.613281 197.730469 240.367188 199.1875 242.484375 199.417969 C 264.929688 201.835938 285.421875 207 301.777344 214.382812 C 337.234375 230.371094 342.53125 251.394531 342.53125 262.515625 C 342.5625 273.640625 337 295.457031 299.859375 311.511719 Z M 299.859375 311.511719 " fill-opacity="1" fill-rule="nonzero"/></g></svg>