<svg xmlns="http://www.w3.org/2000/svg" xmlns:xlink="http://www.w3.org/1999/xlink" width="500" zoomAndPan="magnify" viewBox="0 0 375 374.999991" height="500" preserveAspectRatio="xMidYMid meet" version="1.0"><defs><clipPath id="97fcddd3da"><path d="M 6 39 L 367 39 L 367 337.5 L 6 337.5 Z M 6 39 " clip-rule="nonzero"/></clipPath></defs><g clip-path="url(#97fcddd3da)"><path fill="#ccab5c" d="M 350.988281 257.113281 C 348.855469 262.351562 345.796875 267.90625 342.035156 273.453125 L 330.835938 262.253906 C 330.484375 261.90625 330.105469 261.570312 329.722656 261.261719 C 322.347656 255.296875 310.042969 257.542969 301.089844 266.503906 C 299.144531 268.449219 297.484375 270.589844 296.15625 272.835938 C 295.894531 273.277344 295.636719 273.730469 295.40625 274.171875 C 291.425781 281.78125 291.566406 289.765625 295.78125 295.054688 C 295.9375 295.257812 296.097656 295.445312 296.261719 295.625 C 296.441406 295.835938 296.636719 296.039062 296.839844 296.242188 L 308.039062 307.441406 C 304.351562 309.949219 300.679688 312.132812 297.042969 313.960938 C 286.21875 319.414062 276.625 321.296875 270.738281 319.136719 C 269.453125 318.660156 268.347656 317.976562 267.484375 317.105469 L 267.476562 317.105469 C 266.570312 316.191406 265.886719 315.085938 265.40625 313.710938 C 263.40625 308.054688 265.113281 298.921875 270.085938 288.648438 C 275.085938 278.332031 282.859375 267.734375 292.597656 258.007812 C 296.398438 254.199219 300.386719 250.65625 304.449219 247.453125 C 315.976562 238.382812 328.140625 232.191406 337.828125 230.488281 C 341.984375 229.75 345.601562 229.871094 348.3125 230.824219 C 349.675781 231.296875 350.777344 231.980469 351.695312 232.898438 C 355.789062 236.984375 355.523438 246.035156 350.988281 257.113281 Z M 344.214844 296.308594 C 343.648438 299.132812 341.871094 302.203125 339.332031 304.742188 C 336.792969 307.28125 333.71875 309.0625 330.894531 309.625 C 328.980469 310.007812 327.367188 309.777344 326.585938 308.996094 C 324.847656 307.257812 325.644531 301.429688 330.835938 296.25 C 334.425781 292.65625 338.324219 291.171875 340.953125 291.171875 C 342.125 291.171875 343.050781 291.464844 343.582031 291.996094 C 344.363281 292.777344 344.597656 294.394531 344.214844 296.308594 Z M 305.351562 287.761719 C 305.3125 287.722656 305.273438 287.679688 305.238281 287.632812 C 305.222656 287.617188 305.207031 287.59375 305.199219 287.582031 C 304.246094 286.410156 304.109375 283.464844 306.054688 279.746094 C 306.183594 279.496094 306.320312 279.257812 306.484375 278.988281 C 307.316406 277.566406 308.363281 276.230469 309.59375 275 C 314.589844 270.003906 320.28125 269.074219 322.167969 270.613281 C 322.191406 270.628906 322.207031 270.640625 322.226562 270.65625 C 322.265625 270.6875 322.304688 270.71875 322.332031 270.753906 L 332.496094 280.910156 C 328.949219 282.335938 325.449219 284.628906 322.339844 287.753906 C 319.214844 290.871094 316.925781 294.363281 315.496094 297.90625 Z M 246.5 313.117188 C 236.78125 314.832031 229.042969 313.433594 224.613281 308.996094 L 224.582031 308.972656 C 218.496094 302.851562 218.152344 290.691406 223.640625 275.601562 C 229.765625 258.75 242.179688 240.433594 258.601562 224.011719 C 275.019531 207.59375 293.339844 195.175781 310.1875 189.054688 C 317.316406 186.464844 323.789062 185.171875 329.28125 185.171875 C 335.417969 185.171875 340.328125 186.785156 343.558594 189.992188 L 343.582031 190.023438 C 348.089844 194.53125 349.484375 202.148438 347.730469 211.933594 L 343.199219 207.40625 C 335.761719 199.96875 323.355469 198.960938 308.257812 204.574219 C 294.691406 209.605469 280.074219 219.527344 267.09375 232.507812 C 254.117188 245.488281 244.191406 260.105469 239.160156 273.667969 C 233.550781 288.765625 234.554688 301.175781 241.992188 308.613281 Z M 206.644531 258.601562 C 212.773438 241.753906 225.191406 223.433594 241.609375 207.023438 C 258.023438 190.601562 276.339844 178.1875 293.1875 172.058594 C 308.300781 166.566406 320.476562 166.910156 326.585938 173.027344 L 326.773438 173.207031 C 320.484375 173.535156 313.539062 175.046875 306.078125 177.757812 C 287.617188 184.472656 267.734375 197.878906 250.097656 215.507812 C 232.46875 233.144531 219.0625 253.027344 212.34375 271.492188 C 209.632812 278.949219 208.125 285.898438 207.792969 292.183594 L 207.613281 291.996094 C 201.5 285.890625 201.152344 273.714844 206.644531 258.601562 Z M 114.453125 229.335938 L 208.070312 229.335938 C 202.902344 237.40625 198.75 245.507812 195.78125 253.375 L 114.453125 253.375 Z M 102.433594 313.464844 C 102.433594 320.089844 97.039062 325.480469 90.414062 325.480469 C 83.789062 325.480469 78.398438 320.089844 78.398438 313.464844 L 78.398438 169.246094 C 78.398438 162.621094 83.789062 157.230469 90.414062 157.230469 C 97.039062 157.230469 102.433594 162.621094 102.433594 169.246094 Z M 54.359375 283.417969 C 47.734375 283.417969 42.34375 278.027344 42.34375 271.402344 L 42.34375 211.3125 C 42.34375 204.6875 47.734375 199.292969 54.359375 199.292969 C 60.988281 199.292969 66.378906 204.6875 66.378906 211.3125 L 66.378906 271.402344 C 66.378906 278.027344 60.988281 283.417969 54.359375 283.417969 Z M 88.964844 116.390625 C 93.414062 104.417969 102.351562 91.332031 114.136719 79.546875 C 125.921875 67.761719 139.003906 58.824219 150.976562 54.378906 C 159.804688 51.097656 167.246094 50.695312 171.535156 53.15625 C 155.148438 60.46875 138.027344 72.644531 122.632812 88.042969 C 107.285156 103.394531 95.050781 120.648438 87.75 136.964844 C 85.285156 132.675781 85.683594 125.222656 88.964844 116.390625 Z M 97.136719 79.546875 C 96.355469 78.765625 96.125 77.152344 96.507812 75.238281 C 97.070312 72.414062 98.851562 69.339844 101.390625 66.800781 C 103.929688 64.261719 107 62.480469 109.824219 61.917969 C 111.738281 61.535156 113.355469 61.773438 114.136719 62.550781 L 114.480469 62.898438 C 111.476562 65.453125 108.511719 68.171875 105.640625 71.054688 C 102.757812 73.921875 100.042969 76.890625 97.484375 79.894531 Z M 216.109375 62.546875 L 216.296875 62.734375 C 210.007812 63.0625 203.0625 64.574219 195.601562 67.285156 C 177.140625 74.003906 157.265625 87.414062 139.628906 105.042969 C 125.117188 119.554688 113.488281 135.558594 106.082031 151.046875 C 103.460938 148.78125 100.351562 147.082031 96.925781 146.113281 C 103.222656 129.984375 115.390625 112.289062 131.132812 96.546875 C 147.546875 80.125 165.867188 67.710938 182.714844 61.585938 C 197.828125 56.085938 210.003906 56.4375 216.109375 62.546875 Z M 215.003906 146.417969 L 194.867188 126.28125 C 191.1875 122.597656 185.65625 121.171875 179.695312 122.367188 C 174.535156 123.394531 169.359375 126.292969 165.121094 130.53125 C 160.886719 134.765625 157.988281 139.941406 156.957031 145.101562 C 155.761719 151.066406 157.191406 156.59375 160.871094 160.277344 L 181.007812 180.414062 C 153.464844 201.476562 125.644531 209.339844 114.453125 198.800781 L 114.453125 169.242188 C 114.453125 167.285156 114.210938 165.382812 113.769531 163.566406 C 120.0625 147.160156 132.191406 129.472656 148.132812 113.539062 C 164.542969 97.121094 182.863281 84.703125 199.710938 78.574219 C 214.824219 73.078125 227 73.429688 233.105469 79.542969 C 244.089844 90.527344 236.261719 118.617188 215.003906 146.417969 Z M 224.875 207.273438 L 169.375 151.78125 C 168.59375 151 168.359375 149.382812 168.742188 147.460938 C 169.304688 144.644531 171.078125 141.566406 173.617188 139.027344 C 176.15625 136.488281 179.234375 134.714844 182.050781 134.152344 C 183.976562 133.769531 185.589844 134 186.371094 134.78125 L 241.863281 190.28125 C 238.898438 192.910156 235.976562 195.652344 233.105469 198.515625 C 230.246094 201.382812 227.503906 204.304688 224.875 207.273438 Z M 114.453125 212.816406 C 118.566406 214.5 123.253906 215.324219 128.382812 215.324219 C 145.519531 215.324219 167.570312 206.140625 189.578125 188.984375 L 217.152344 216.550781 C 216.949219 216.804688 216.761719 217.0625 216.566406 217.316406 L 114.453125 217.316406 Z M 270.6875 169.242188 C 270.6875 166.035156 271.941406 163.015625 274.199219 160.75 C 276.476562 158.480469 279.496094 157.226562 282.703125 157.226562 C 285.707031 157.226562 288.503906 158.328125 290.644531 160.214844 C 290.125 160.386719 289.605469 160.570312 289.082031 160.761719 C 283.054688 162.949219 276.882812 165.863281 270.6875 169.394531 Z M 260.351562 281.246094 C 258.5625 284.714844 256.960938 288.296875 255.671875 291.984375 C 254.550781 295.183594 252.996094 299.171875 252.996094 302.605469 L 250.488281 300.105469 C 246.6875 296.304688 246.664062 287.980469 250.425781 277.847656 C 254.875 265.867188 263.8125 252.785156 275.597656 241.007812 C 287.375 229.222656 300.460938 220.28125 312.441406 215.835938 C 322.574219 212.074219 330.894531 212.09375 334.703125 215.902344 L 337.21875 218.421875 C 336.730469 218.496094 336.242188 218.554688 335.742188 218.644531 C 323.992188 220.71875 310.238281 227.589844 297.011719 238.007812 C 292.582031 241.496094 288.230469 245.363281 284.09375 249.5 C 274.09375 259.5 265.921875 270.4375 260.351562 281.246094 Z M 18.308594 253.371094 L 18.308594 229.335938 L 30.324219 229.335938 L 30.324219 253.371094 Z M 360.199219 224.398438 L 360.199219 224.390625 L 357.679688 221.882812 C 362.742188 204.507812 360.789062 190.238281 352.085938 181.515625 C 352.0625 181.496094 352.03125 181.480469 352.011719 181.449219 L 335.078125 164.519531 C 327.816406 157.257812 316.8125 154.6875 303.34375 156.917969 C 299.078125 149.753906 291.335938 145.207031 282.703125 145.207031 C 276.296875 145.207031 270.257812 147.703125 265.707031 152.253906 C 261.160156 156.796875 258.667969 162.835938 258.667969 169.242188 L 258.667969 177.011719 C 256.144531 178.769531 253.636719 180.617188 251.140625 182.5625 L 223.566406 154.988281 C 250.035156 121.023438 257.535156 86.972656 241.609375 71.042969 L 224.613281 54.046875 C 215.847656 45.28125 201.648438 43.355469 184.238281 48.4375 L 181.730469 45.9375 C 174.300781 38.503906 161.890625 37.5 146.792969 43.105469 C 139.382812 45.863281 131.644531 50.085938 124.042969 55.460938 L 122.632812 54.050781 C 118.949219 50.367188 113.421875 48.941406 107.464844 50.132812 C 102.296875 51.164062 97.121094 54.0625 92.886719 58.300781 C 88.65625 62.535156 85.757812 67.707031 84.722656 72.875 C 83.527344 78.832031 84.953125 84.359375 88.640625 88.039062 L 90.054688 89.453125 C 84.675781 97.054688 80.457031 104.789062 77.699219 112.203125 C 72.09375 127.300781 73.09375 139.710938 80.53125 147.136719 L 80.664062 147.28125 C 72.261719 151.027344 66.378906 159.457031 66.378906 169.242188 L 66.378906 190.5 C 62.839844 188.449219 58.738281 187.269531 54.359375 187.269531 C 41.105469 187.269531 30.324219 198.058594 30.324219 211.308594 L 30.324219 217.316406 L 12.296875 217.316406 C 8.980469 217.316406 6.289062 220.003906 6.289062 223.324219 L 6.289062 259.378906 C 6.289062 262.699219 8.980469 265.386719 12.296875 265.386719 L 30.324219 265.386719 L 30.324219 271.398438 C 30.324219 284.648438 41.105469 295.433594 54.359375 295.433594 C 58.738281 295.433594 62.839844 294.253906 66.378906 292.203125 L 66.378906 313.460938 C 66.378906 326.710938 77.164062 337.496094 90.414062 337.496094 C 103.664062 337.496094 114.453125 326.710938 114.453125 313.460938 L 114.453125 265.386719 L 192.15625 265.386719 C 188.894531 280.394531 191.253906 292.632812 199.109375 300.488281 L 216.042969 317.417969 C 216.070312 317.441406 216.085938 317.472656 216.109375 317.492188 C 221.667969 323.042969 229.457031 325.855469 238.867188 325.855469 C 244.246094 325.855469 250.148438 324.929688 256.464844 323.089844 L 258.984375 325.605469 L 258.992188 325.605469 C 261.09375 327.714844 263.664062 329.332031 266.597656 330.414062 C 269.476562 331.472656 272.707031 331.992188 276.222656 331.992188 C 283.867188 331.992188 292.859375 329.519531 302.449219 324.695312 C 307.167969 322.316406 311.929688 319.433594 316.675781 316.082031 L 318.082031 317.492188 L 318.089844 317.484375 C 320.921875 320.316406 324.839844 321.820312 329.214844 321.820312 C 330.527344 321.820312 331.878906 321.683594 333.253906 321.40625 C 338.421875 320.378906 343.597656 317.472656 347.832031 313.242188 C 352.0625 309.007812 354.960938 303.832031 356 298.664062 C 357.191406 292.707031 355.765625 287.179688 352.078125 283.496094 L 352.085938 283.492188 L 350.664062 282.070312 C 355.496094 275.226562 359.421875 268.25 362.113281 261.65625 C 368.738281 245.484375 368.054688 232.257812 360.199219 224.398438 " fill-opacity="1" fill-rule="nonzero"/></g></svg>